<?xml version="1.0" encoding="UTF-8"?>
<svg version="1.1" xmlns="http://www.w3.org/2000/svg" width="115" height="114">
<path d="M0 0 C37.95 0 75.9 0 115 0 C115 37.62 115 75.24 115 114 C77.05 114 39.1 114 0 114 C0 76.38 0 38.76 0 0 Z " fill="#080C25" transform="translate(0,0)"/>
<path d="M0 0 C5.94 0 11.88 0 18 0 C18 0.66 18 1.32 18 2 C18.87011719 2.05607422 18.87011719 2.05607422 19.7578125 2.11328125 C24.83605414 2.54065802 28.53865539 3.36375091 33 6 C33.845625 6.45375 34.69125 6.9075 35.5625 7.375 C40.21595543 10.47730362 43.59999659 14.61289882 47 19 C47.639375 19.70125 48.27875 20.4025 48.9375 21.125 C54.88374686 29.41370775 57.19770374 37.69395757 57.1875 47.6875 C57.18669434 48.49461426 57.18588867 49.30172852 57.18505859 50.13330078 C57.11107626 57.31539002 56.38878237 63.53568405 53 70 C52.34 70 51.68 70 51 70 C50.85304688 70.59167969 50.70609375 71.18335937 50.5546875 71.79296875 C48.88715403 77.66767001 47.27271127 80.77180942 42 84 C39.6875 84 39.6875 84 38 83 C37.67 82.01 37.34 81.02 37 80 C36.34 79.67 35.68 79.34 35 79 C35 78.34 35 77.68 35 77 C32.03 76.01 29.06 75.02 26 74 C26 73.01 26 72.02 26 71 C27.62935241 69.62131719 29.29749607 68.28725907 31 67 C31.33 66.34 31.66 65.68 32 65 C32.66 65 33.32 65 34 65 C34.73832608 60.67551867 35.39174965 56.34464536 36 52 C36.99 51.67 37.98 51.34 39 51 C38.97679688 50.31292969 38.95359375 49.62585937 38.9296875 48.91796875 C38.91164063 48.01691406 38.89359375 47.11585937 38.875 46.1875 C38.85179688 45.29417969 38.82859375 44.40085938 38.8046875 43.48046875 C39 41 39 41 41 38 C41.75056966 31.79074192 41.57971955 26.30328823 38 21 C34.6722333 16.91592268 30.45864109 14.68415222 25.21875 14.12109375 C14.03330153 13.48591665 14.03330153 13.48591665 3 15 C2.34 15.99 1.68 16.98 1 18 C0.34 18.28875 -0.32 18.5775 -1 18.875 C-3.72052884 20.40529747 -4.03695531 22.11086594 -5 25 C-5.495 25.495 -5.495 25.495 -6 26 C-6.04080783 27.99958364 -6.04254356 30.00045254 -6 32 C-5.2575 31.83886719 -4.515 31.67773438 -3.75 31.51171875 C1.50607588 30.7944834 6.70135339 30.81569967 12 30.8125 C13.06734375 30.80025391 14.1346875 30.78800781 15.234375 30.77539062 C21.45275543 30.76378917 26.36177639 31.1808882 32 34 C32.6328125 36.765625 32.6328125 36.765625 33.125 40.25 C33.29257813 41.38953125 33.46015625 42.5290625 33.6328125 43.703125 C33.94553304 46.51095622 34.07420706 49.18013184 34 52 C33.01 52.495 33.01 52.495 32 53 C31.27840576 54.64363134 30.60648579 56.31050386 30 58 C29.34 58 28.68 58 28 58 C27.92394531 58.62777344 27.84789063 59.25554687 27.76953125 59.90234375 C27 62 27 62 25.07421875 62.94140625 C24.28660156 63.14636719 23.49898437 63.35132813 22.6875 63.5625 C20.00551465 64.27621841 18.28516785 64.76045901 16.14453125 66.55859375 C13.08914909 68.61221127 10.64682119 68.46909474 7 68.5 C5.783125 68.5309375 4.56625 68.561875 3.3125 68.59375 C0 68 0 68 -2.4375 65.59375 C-4 63 -4 63 -4 61 C-4.66 61 -5.32 61 -6 61 C-5.505 62.60875 -5.505 62.60875 -5 64.25 C-4 68 -4 68 -4 72 C-6.20927044 71.7155186 -8.41738979 71.4220904 -10.625 71.125 C-11.85476562 70.96257812 -13.08453125 70.80015625 -14.3515625 70.6328125 C-17.73961517 70.04516311 -20.77698651 69.18011878 -24 68 C-24 67.34 -24 66.68 -24 66 C-24.86625 65.773125 -25.7325 65.54625 -26.625 65.3125 C-30.79242221 63.69183581 -32.90559169 62.24176109 -36 59 C-36.375 55.6875 -36.375 55.6875 -36 53 C-36.66 52.67 -37.32 52.34 -38 52 C-38.23576736 44.37685526 -37.83717315 37.41430591 -36 30 C-35.34 30 -34.68 30 -34 30 C-33.86464844 29.443125 -33.72929688 28.88625 -33.58984375 28.3125 C-31.79511724 21.95035572 -28.93758213 17.42789624 -24 13 C-21.77734375 11.77734375 -21.77734375 11.77734375 -20 11 C-20 10.34 -20 9.68 -20 9 C-13.375 5 -13.375 5 -10 5 C-10 4.34 -10 3.68 -10 3 C-6.7 2.67 -3.4 2.34 0 2 C0 1.34 0 0.68 0 0 Z " fill="#DDD9F4" transform="translate(47,10)"/>
<path d="M0 0 C0 0.66 0 1.32 0 2 C0.99 2.33 1.98 2.66 3 3 C6.67571426 8.17322747 6.74038219 13.87502005 6 20 C5.01 21.485 5.01 21.485 4 23 C3.63322321 25.60911673 3.49618999 28.19072265 3.34375 30.8203125 C3.2303125 31.53960937 3.116875 32.25890625 3 33 C2.01 33.495 2.01 33.495 1 34 C0.34647052 35.98296446 0.34647052 35.98296446 -0.0625 38.3125 C-0.64594909 41.22974544 -1.25507367 44.1191787 -2 47 C-2.66 47 -3.32 47 -4 47 C-4.37125 47.928125 -4.37125 47.928125 -4.75 48.875 C-6.20628639 51.35068687 -7.37812506 51.95125002 -10 53 C-10 53.99 -10 54.98 -10 56 C-9.1646875 56.185625 -9.1646875 56.185625 -8.3125 56.375 C-5.77885636 57.05976855 -3.42078968 57.99133763 -1 59 C-1 59.66 -1 60.32 -1 61 C0.485 61.495 0.485 61.495 2 62 C2.33 62.99 2.66 63.98 3 65 C4.65 64.67 6.3 64.34 8 64 C7.505 65.485 7.505 65.485 7 67 C5.35 67 3.7 67 2 67 C1.773125 67.639375 1.54625 68.27875 1.3125 68.9375 C0 71 0 71 -2.625 71.75 C-3.40875 71.8325 -4.1925 71.915 -5 72 C-5 72.66 -5 73.32 -5 74 C-6.19625 74.474375 -7.3925 74.94875 -8.625 75.4375 C-9.29789062 75.70433594 -9.97078125 75.97117187 -10.6640625 76.24609375 C-16.41819752 78.10319753 -22.08270104 78.15443297 -28.0625 78.125 C-28.85205078 78.12886719 -29.64160156 78.13273437 -30.45507812 78.13671875 C-34.43590915 78.1300451 -38.11455726 77.98504182 -42 77 C-42 76.34 -42 75.68 -42 75 C-44.97 74.34 -47.94 73.68 -51 73 C-51 72.34 -51 71.68 -51 71 C-52.3921875 70.9071875 -52.3921875 70.9071875 -53.8125 70.8125 C-57 70 -57 70 -58.5 67.75 C-58.995 66.8425 -59.49 65.935 -60 65 C-61.3921875 63.948125 -61.3921875 63.948125 -62.8125 62.875 C-71.08440228 56.22867056 -73.74472574 45.05292291 -75 35 C-75.2716914 30.33080557 -75.19168773 25.67150093 -75 21 C-74.34 20.67 -73.68 20.34 -73 20 C-73.33 24.62 -73.66 29.24 -74 34 C-73.01 34.33 -72.02 34.66 -71 35 C-71.33 36.98 -71.66 38.96 -72 41 C-71.42765625 41.2784375 -70.8553125 41.556875 -70.265625 41.84375 C-68.03382434 42.98273792 -65.89129126 44.19936383 -63.75 45.5 C-63.04359375 45.9228125 -62.3371875 46.345625 -61.609375 46.78125 C-61.07828125 47.1834375 -60.5471875 47.585625 -60 48 C-60 48.66 -60 49.32 -60 50 C-59.29875 49.95875 -58.5975 49.9175 -57.875 49.875 C-54.57222881 50.01859875 -52.12425029 50.91852875 -49 52 C-46.01039881 52.72534586 -43.00994483 53.36152685 -40 54 C-40.66 50.37 -41.32 46.74 -42 43 C-41.34 43 -40.68 43 -40 43 C-39.38125 44.485 -39.38125 44.485 -38.75 46 C-37.79256342 47.76083065 -37.79256342 47.76083065 -36 49 C-31.26187369 49.7983656 -26.73130005 49.8346165 -22 49 C-19.32800657 47.08652107 -19.32800657 47.08652107 -17 45 C-14.796875 44.27734375 -14.796875 44.27734375 -12.75 43.9375 C-11.5125 43.628125 -10.275 43.31875 -9 43 C-8.67 42.01 -8.34 41.02 -8 40 C-7.34 39.67 -6.68 39.34 -6 39 C-5.27840576 37.35636866 -4.60648579 35.68949614 -4 34 C-3.34 34 -2.68 34 -2 34 C-2.33 32.88625 -2.66 31.7725 -3 30.625 C-4.24429211 25.73545777 -4.18495088 21.01422385 -4 16 C-10.79549663 13.92860163 -17.04920887 13.73002145 -24.125 13.8125 C-25.71248047 13.8134668 -25.71248047 13.8134668 -27.33203125 13.81445312 C-32.35231664 13.84279853 -37.05028974 14.09171983 -42 15 C-43 14 -43 14 -43.1875 11.0625 C-43 8 -43 8 -41 6 C-40.71125 5.175 -40.4225 4.35 -40.125 3.5 C-38.78716339 0.52702976 -37.88968631 0.26423776 -35 -1 C-34.34 -1.99 -33.68 -2.98 -33 -4 C-22.61940753 -6.53747816 -8.5177396 -6.85574163 0 0 Z " fill="#503829" transform="translate(83,28)"/>
<path d="M0 0 C1.59424805 -0.01836914 1.59424805 -0.01836914 3.22070312 -0.03710938 C9.42149136 -0.04872859 14.31505881 0.37627941 19.9375 3.1875 C20.5703125 5.953125 20.5703125 5.953125 21.0625 9.4375 C21.23007813 10.57703125 21.39765625 11.7165625 21.5703125 12.890625 C21.88303304 15.69845622 22.01170706 18.36763184 21.9375 21.1875 C21.2775 21.5175 20.6175 21.8475 19.9375 22.1875 C19.21590576 23.83113134 18.54398579 25.49800386 17.9375 27.1875 C17.2775 27.1875 16.6175 27.1875 15.9375 27.1875 C15.86144531 27.81527344 15.78539063 28.44304687 15.70703125 29.08984375 C14.9375 31.1875 14.9375 31.1875 13.01171875 32.12890625 C12.22410156 32.33386719 11.43648437 32.53882813 10.625 32.75 C7.94301465 33.46371841 6.22266785 33.94795901 4.08203125 35.74609375 C1.02664909 37.79971127 -1.41567881 37.65659474 -5.0625 37.6875 C-6.279375 37.7184375 -7.49625 37.749375 -8.75 37.78125 C-12.0625 37.1875 -12.0625 37.1875 -14.5 34.78125 C-16.0625 32.1875 -16.0625 32.1875 -16.0625 30.1875 C-16.7225 30.1875 -17.3825 30.1875 -18.0625 30.1875 C-17.5675 31.79625 -17.5675 31.79625 -17.0625 33.4375 C-16.0625 37.1875 -16.0625 37.1875 -16.0625 41.1875 C-18.27177044 40.9030186 -20.47988979 40.6095904 -22.6875 40.3125 C-23.91726562 40.15007812 -25.14703125 39.98765625 -26.4140625 39.8203125 C-29.80211517 39.23266311 -32.83948651 38.36761878 -36.0625 37.1875 C-36.0625 36.5275 -36.0625 35.8675 -36.0625 35.1875 C-36.92875 34.960625 -37.795 34.73375 -38.6875 34.5 C-42.85492221 32.87933581 -44.96809169 31.42926109 -48.0625 28.1875 C-48.3125 25 -48.3125 25 -48.0625 22.1875 C-48.7225 21.5275 -49.3825 20.8675 -50.0625 20.1875 C-49.0625 19.1875 -49.0625 19.1875 -46 19.125 C-44.5459375 19.1559375 -44.5459375 19.1559375 -43.0625 19.1875 C-43.0625 22.4875 -43.0625 25.7875 -43.0625 29.1875 C-39.72439518 30.85655241 -36.60092155 32.0616386 -33.0625 33.1875 C-33.3925 31.8675 -33.7225 30.5475 -34.0625 29.1875 C-33.0725 29.1875 -32.0825 29.1875 -31.0625 29.1875 C-31.0625 27.8675 -31.0625 26.5475 -31.0625 25.1875 C-30.4025 25.1875 -29.7425 25.1875 -29.0625 25.1875 C-28.7325 23.5375 -28.4025 21.8875 -28.0625 20.1875 C-26.7425 20.5175 -25.4225 20.8475 -24.0625 21.1875 C-24.58208285 25.56684119 -25.11925742 29.87553391 -26.0625 34.1875 C-25.0725 34.1875 -24.0825 34.1875 -23.0625 34.1875 C-23.0625 35.8375 -23.0625 37.4875 -23.0625 39.1875 C-21.4125 39.1875 -19.7625 39.1875 -18.0625 39.1875 C-18.40023437 38.34960938 -18.73796875 37.51171875 -19.0859375 36.6484375 C-20.19447589 32.71977746 -20.05768671 29.86810106 -19.6875 25.8125 C-19.01352383 17.589021 -18.96380857 9.43371767 -19.0625 1.1875 C-12.70496716 0.05707097 -6.44652539 0.00392363 0 0 Z " fill="#D9AC90" transform="translate(59.0625,40.8125)"/>
<path d="M0 0 C1.41778293 2.83556587 0.86257622 4.9908706 0.5625 8.125 C0.46066406 9.22070312 0.35882813 10.31640625 0.25390625 11.4453125 C0.17011719 12.28835937 0.08632812 13.13140625 0 14 C0.99 14.33 1.98 14.66 3 15 C2.67 16.98 2.34 18.96 2 21 C2.57234375 21.2784375 3.1446875 21.556875 3.734375 21.84375 C5.96617566 22.98273792 8.10870874 24.19936383 10.25 25.5 C10.95640625 25.9228125 11.6628125 26.345625 12.390625 26.78125 C12.92171875 27.1834375 13.4528125 27.585625 14 28 C14 28.66 14 29.32 14 30 C14.70125 29.95875 15.4025 29.9175 16.125 29.875 C19.42777119 30.01859875 21.87574971 30.91852875 25 32 C27.98794491 32.72494401 30.99045548 33.37133959 34 34 C34.495 33.01 34.495 33.01 35 32 C35.061875 32.680625 35.12375 33.36125 35.1875 34.0625 C36.27524609 37.99512049 38.34572936 40.92402281 41 44 C41.99 44.495 41.99 44.495 43 45 C43 43.68 43 42.36 43 41 C43.73605469 40.95101562 44.47210938 40.90203125 45.23046875 40.8515625 C46.20628906 40.77679688 47.18210938 40.70203125 48.1875 40.625 C49.63189453 40.52058594 49.63189453 40.52058594 51.10546875 40.4140625 C54.01508938 39.99784147 56.32890774 39.20125904 59 38 C59.33 38.66 59.66 39.32 60 40 C61.89533342 40.46523063 61.89533342 40.46523063 64.0625 40.625 C66.0115625 40.810625 66.0115625 40.810625 68 41 C68.33 40.01 68.66 39.02 69 38 C70.98 38.495 70.98 38.495 73 39 C73 39.66 73 40.32 73 41 C74.485 41.495 74.485 41.495 76 42 C76.33 42.99 76.66 43.98 77 45 C78.65 44.67 80.3 44.34 82 44 C81.67 44.99 81.34 45.98 81 47 C79.35 47 77.7 47 76 47 C75.773125 47.639375 75.54625 48.27875 75.3125 48.9375 C74 51 74 51 71.375 51.75 C70.59125 51.8325 69.8075 51.915 69 52 C69 52.66 69 53.32 69 54 C67.205625 54.7115625 67.205625 54.7115625 65.375 55.4375 C64.36566406 55.83775391 64.36566406 55.83775391 63.3359375 56.24609375 C57.58180248 58.10319753 51.91729896 58.15443297 45.9375 58.125 C45.14794922 58.12886719 44.35839844 58.13273437 43.54492188 58.13671875 C39.56409085 58.1300451 35.88544274 57.98504182 32 57 C32 56.34 32 55.68 32 55 C29.03 54.34 26.06 53.68 23 53 C23 52.34 23 51.68 23 51 C21.6078125 50.9071875 21.6078125 50.9071875 20.1875 50.8125 C17 50 17 50 15.5 47.75 C15.005 46.8425 14.51 45.935 14 45 C12.6078125 43.948125 12.6078125 43.948125 11.1875 42.875 C2.90949303 36.22376554 0.26775253 25.0560709 -1 15 C-1.2488434 10.31805742 -1.35616363 5.67807233 -1 1 C-0.67 0.67 -0.34 0.34 0 0 Z " fill="#655F46" transform="translate(9,48)"/>
<path d="M0 0 C0 0.66 0 1.32 0 2 C0.99 2.33 1.98 2.66 3 3 C6.7960378 8.34257172 6.30101227 13.73448526 6 20 C4.68 20.33 3.36 20.66 2 21 C2 20.01 2 19.02 2 18 C1.21625 17.71125 0.4325 17.4225 -0.375 17.125 C-3 16 -3 16 -5 14 C-5.3063859 11.26565038 -5.5113336 8.61720179 -5.625 5.875 C-5.68300781 4.74384766 -5.68300781 4.74384766 -5.7421875 3.58984375 C-5.83651031 1.72696816 -5.91934662 -0.13648255 -6 -2 C-6.66 -2 -7.32 -2 -8 -2 C-8.33 0.64 -8.66 3.28 -9 6 C-8.34 6 -7.68 6 -7 6 C-7 7.65 -7 9.3 -7 11 C-13.12578011 11.60823349 -19.15330087 12.05429897 -25.3125 11.9375 C-30.0139852 11.88833414 -33.58312514 12.43569015 -38 14 C-40.375 14.6875 -40.375 14.6875 -42 15 C-43 14 -43 14 -43.1875 11.0625 C-43 8 -43 8 -41 6 C-40.566875 4.7625 -40.566875 4.7625 -40.125 3.5 C-38.78716339 0.52702976 -37.88968631 0.26423776 -35 -1 C-34.34 -1.99 -33.68 -2.98 -33 -4 C-22.61940753 -6.53747816 -8.5177396 -6.85574163 0 0 Z " fill="#432D21" transform="translate(83,28)"/>
<path d="M0 0 C1.08539063 -0.01224609 2.17078125 -0.02449219 3.2890625 -0.03710938 C8.65284739 -0.04694517 13.25075176 -0.02370595 18.25 2.1875 C18.25 4.8275 18.25 7.4675 18.25 10.1875 C15.25 10.1875 15.25 10.1875 13.5625 9.25 C10.18636449 7.6988026 6.9406453 7.55656453 3.25 7.1875 C3.25 7.8475 3.25 8.5075 3.25 9.1875 C4.920625 9.1565625 4.920625 9.1565625 6.625 9.125 C10.25 9.1875 10.25 9.1875 12.25 10.1875 C12.25 10.8475 12.25 11.5075 12.25 12.1875 C12.91 12.1875 13.57 12.1875 14.25 12.1875 C13.92 13.8375 13.59 15.4875 13.25 17.1875 C9.62 17.1875 5.99 17.1875 2.25 17.1875 C1.92 17.8475 1.59 18.5075 1.25 19.1875 C5.54 19.1875 9.83 19.1875 14.25 19.1875 C13.64169139 25.63557122 13.64169139 25.63557122 11.875 28.125 C10.25 29.1875 10.25 29.1875 7.25 29.1875 C7.25 28.5275 7.25 27.8675 7.25 27.1875 C4.61 27.1875 1.97 27.1875 -0.75 27.1875 C-1.08 25.5375 -1.41 23.8875 -1.75 22.1875 C-2.74 21.8575 -3.73 21.5275 -4.75 21.1875 C-5.08 16.8975 -5.41 12.6075 -5.75 8.1875 C-8.39 8.1875 -11.03 8.1875 -13.75 8.1875 C-13.75 5.8775 -13.75 3.5675 -13.75 1.1875 C-9.68846528 -0.84326736 -4.46379311 0.00261346 0 0 Z " fill="#EBBFA6" transform="translate(58.75,40.8125)"/>
<path d="M0 0 C0.66 0.66 1.32 1.32 2 2 C4.65537372 2.56520003 7.29144713 2.73788198 10 3 C10.33 2.01 10.66 1.02 11 0 C12.32 0.33 13.64 0.66 15 1 C15 1.66 15 2.32 15 3 C15.99 3.33 16.98 3.66 18 4 C18.495 5.485 18.495 5.485 19 7 C20.65 6.67 22.3 6.34 24 6 C23.67 6.99 23.34 7.98 23 9 C21.35 9 19.7 9 18 9 C17.6596875 9.9590625 17.6596875 9.9590625 17.3125 10.9375 C16 13 16 13 13.375 13.75 C12.199375 13.87375 12.199375 13.87375 11 14 C11 14.66 11 15.32 11 16 C5.28264895 18.45029331 1.20970773 19.33266291 -5 19 C-4.67 17.35 -4.34 15.7 -4 14 C-3.01 14 -2.02 14 -1 14 C-0.54753906 13.39671875 -0.09507813 12.7934375 0.37109375 12.171875 C2.33331029 9.55558628 4.12797985 8.65027177 7.0625 7.25 C7.94035156 6.82203125 8.81820312 6.3940625 9.72265625 5.953125 C12 5 12 5 14 5 C14 4.01 14 3.02 14 2 C13.01 2 12.02 2 11 2 C10.67 2.99 10.34 3.98 10 5 C7.45247866 6.5367401 4.97462838 7.88355226 2.3125 9.1875 C1.60416016 9.55552734 0.89582031 9.92355469 0.16601562 10.30273438 C-4.03485955 12.39347465 -7.19962399 13.56305162 -12 13 C-13.875 11.9375 -13.875 11.9375 -15 10 C-15.1875 6.3125 -15.1875 6.3125 -15 3 C-14.25234375 2.95101562 -13.5046875 2.90203125 -12.734375 2.8515625 C-11.74953125 2.77679688 -10.7646875 2.70203125 -9.75 2.625 C-8.28820313 2.52058594 -8.28820313 2.52058594 -6.796875 2.4140625 C-4.10366811 2.01534751 -2.33036721 1.36492937 0 0 Z " fill="#645E45" transform="translate(67,86)"/>
<path d="M0 0 C1.65 0 3.3 0 5 0 C5 2.31 5 4.62 5 7 C7.64 7 10.28 7 13 7 C14.10228696 11.40914783 14.07654536 15.48382401 14 20 C15.32 20.33 16.64 20.66 18 21 C18 22.65 18 24.3 18 26 C20.64 26 23.28 26 26 26 C25.67 26.66 25.34 27.32 25 28 C24.40574219 27.9278125 23.81148437 27.855625 23.19921875 27.78125 C11.52230558 26.37778558 11.52230558 26.37778558 0 28 C-0.33 29.32 -0.66 30.64 -1 32 C-0.9278125 31.030625 -0.855625 30.06125 -0.78125 29.0625 C-0.09662052 19.35809063 0.11640814 9.72654643 0 0 Z " fill="#D6A98E" transform="translate(40,42)"/>
<path d="M0 0 C1.65 0.33 3.3 0.66 5 1 C4.67 4.3 4.34 7.6 4 11 C5.32 11.66 6.64 12.32 8 13 C7.01 13.33 6.02 13.66 5 14 C4.26676204 16.01508358 4.26676204 16.01508358 4 18 C3.34 18 2.68 18 2 18 C2 19.32 2 20.64 2 22 C1.01 22 0.02 22 -1 22 C-0.67 23.32 -0.34 24.64 0 26 C-3.68684241 25.74277844 -5.78603703 25.14419243 -8.875 23.0625 C-11.87045885 18.74551519 -11.4454651 15.09810062 -11 10 C-9.68 9.67 -8.36 9.34 -7 9 C-7 8.34 -7 7.68 -7 7 C-5.02 6.34 -3.04 5.68 -1 5 C-0.67 3.35 -0.34 1.7 0 0 Z " fill="#F2C7AF" transform="translate(26,48)"/>
<path d="M0 0 C0.66 0 1.32 0 2 0 C2.36463732 1.74784829 2.7163078 3.49840502 3.0625 5.25 C3.35833984 6.71179687 3.35833984 6.71179687 3.66015625 8.203125 C3.98397535 10.868119 3.85503199 12.48871723 3 15 C4.32 15.33 5.64 15.66 7 16 C6.01 16.495 6.01 16.495 5 17 C5.825 17.433125 6.65 17.86625 7.5 18.3125 C8.325 18.869375 9.15 19.42625 10 20 C10 20.99 10 21.98 10 23 C10.99 23.33 11.98 23.66 13 24 C12.505 24.495 12.505 24.495 12 25 C11.71778828 27.58022142 11.55179803 30.16030185 11.37890625 32.75 C11.19134766 33.86375 11.19134766 33.86375 11 35 C10.01 35.495 10.01 35.495 9 36 C8.59270772 38.32156597 8.25561323 40.6568787 8 43 C7.34 42.01 6.68 41.02 6 40 C5.34 40 4.68 40 4 40 C3.67 40.99 3.34 41.98 3 43 C1.515 43.495 1.515 43.495 0 44 C0 43.34 0 42.68 0 42 C0.99 41.505 0.99 41.505 2 41 C2.72159424 39.35636866 3.39351421 37.68949614 4 36 C4.66 36 5.32 36 6 36 C5.67 34.88625 5.34 33.7725 5 32.625 C3.75570789 27.73545777 3.81504912 23.01422385 4 18 C-3.20470668 15.73515409 -9.99012028 15.767716 -17.5 15.875 C-19.30597656 15.88853516 -19.30597656 15.88853516 -21.1484375 15.90234375 C-24.0991679 15.92576225 -27.04947689 15.95856007 -30 16 C-29.67 15.34 -29.34 14.68 -29 14 C-25.03211748 13.08972107 -21.22319939 12.88052043 -17.1640625 12.90234375 C-16.10058594 12.90556641 -15.03710938 12.90878906 -13.94140625 12.91210938 C-12.29978516 12.92467773 -12.29978516 12.92467773 -10.625 12.9375 C-9.50738281 12.94201172 -8.38976562 12.94652344 -7.23828125 12.95117188 C-4.49213196 12.96290756 -1.74609414 12.97932637 1 13 C1 11.35 1 9.7 1 8 C0.34 8 -0.32 8 -1 8 C-0.67 5.36 -0.34 2.72 0 0 Z " fill="#573D2D" transform="translate(75,26)"/>
<path d="M0 0 C-0.33 3.3 -0.66 6.6 -1 10 C-1.66 10 -2.32 10 -3 10 C-3.2475 10.61875 -3.495 11.2375 -3.75 11.875 C-5.20628639 14.35068687 -6.37812506 14.95125002 -9 16 C-9 16.99 -9 17.98 -9 19 C-8.360625 19.12375 -7.72125 19.2475 -7.0625 19.375 C-6.0415625 19.684375 -6.0415625 19.684375 -5 20 C-4.67 20.66 -4.34 21.32 -4 22 C-4.33 22.66 -4.66 23.32 -5 24 C-7.64 24 -10.28 24 -13 24 C-13.33 23.01 -13.66 22.02 -14 21 C-14.99 21.33 -15.98 21.66 -17 22 C-19.33299825 22.03954234 -21.66708189 22.04401732 -24 22 C-20.20222795 17.44806046 -16.38647683 12.99656778 -12 9 C-11.01 9 -10.02 9 -9 9 C-8.79375 8.443125 -8.5875 7.88625 -8.375 7.3125 C-6.85414549 4.75469923 -3.20056999 0 0 0 Z " fill="#38271B" transform="translate(82,65)"/>
<path d="M0 0 C1.4540625 0.0309375 1.4540625 0.0309375 2.9375 0.0625 C2.9375 3.3625 2.9375 6.6625 2.9375 10.0625 C6.27560482 11.73155241 9.39907845 12.9366386 12.9375 14.0625 C12.6075 12.7425 12.2775 11.4225 11.9375 10.0625 C12.9275 10.0625 13.9175 10.0625 14.9375 10.0625 C14.9375 8.7425 14.9375 7.4225 14.9375 6.0625 C15.5975 6.0625 16.2575 6.0625 16.9375 6.0625 C17.2675 4.4125 17.5975 2.7625 17.9375 1.0625 C19.2575 1.3925 20.5775 1.7225 21.9375 2.0625 C21.41791715 6.44184119 20.88074258 10.75053391 19.9375 15.0625 C20.9275 15.0625 21.9175 15.0625 22.9375 15.0625 C22.9375 16.7125 22.9375 18.3625 22.9375 20.0625 C24.5875 20.0625 26.2375 20.0625 27.9375 20.0625 C27.9375 19.4025 27.9375 18.7425 27.9375 18.0625 C28.5975 18.0625 29.2575 18.0625 29.9375 18.0625 C29.9375 19.3825 29.9375 20.7025 29.9375 22.0625 C27.72822956 21.7780186 25.52011021 21.4845904 23.3125 21.1875 C22.08273438 21.02507812 20.85296875 20.86265625 19.5859375 20.6953125 C16.19788483 20.10766311 13.16051349 19.24261878 9.9375 18.0625 C9.9375 17.4025 9.9375 16.7425 9.9375 16.0625 C9.07125 15.835625 8.205 15.60875 7.3125 15.375 C3.14507779 13.75433581 1.03190831 12.30426109 -2.0625 9.0625 C-2.3125 5.875 -2.3125 5.875 -2.0625 3.0625 C-2.7225 2.4025 -3.3825 1.7425 -4.0625 1.0625 C-3.0625 0.0625 -3.0625 0.0625 0 0 Z " fill="#E1BBA9" transform="translate(13.0625,59.9375)"/>
<path d="M0 0 C-1.32 0.33 -2.64 0.66 -4 1 C-4 2.98 -4 4.96 -4 7 C-4.928125 6.979375 -5.85625 6.95875 -6.8125 6.9375 C-10.02286011 6.84230396 -10.02286011 6.84230396 -13 8 C-13.73323796 10.01508358 -13.73323796 10.01508358 -14 12 C-16.76264289 12.59732819 -19.16032769 13 -22 13 C-22.33 12.01 -22.66 11.02 -23 10 C-23.33 11.65 -23.66 13.3 -24 15 C-24.99 15 -25.98 15 -27 15 C-27.33 16.65 -27.66 18.3 -28 20 C-28.66 19.67 -29.32 19.34 -30 19 C-30.125 16.125 -30.125 16.125 -30 13 C-29.34 12.34 -28.68 11.68 -28 11 C-27.566875 9.7625 -27.566875 9.7625 -27.125 8.5 C-25.78716339 5.52702976 -24.88968631 5.26423776 -22 4 C-21.34 3.01 -20.68 2.02 -20 1 C-13.48771205 -0.59189261 -6.66149806 -0.09015561 0 0 Z " fill="#402A1E" transform="translate(70,23)"/>
<path d="M0 0 C0.66 0 1.32 0 2 0 C2 0.66 2 1.32 2 2 C3.051875 1.938125 3.051875 1.938125 4.125 1.875 C7.42777119 2.01859875 9.87574971 2.91852875 13 4 C15.98794491 4.72494401 18.99045548 5.37133959 22 6 C22.33 5.34 22.66 4.68 23 4 C23 4.99 23 5.98 23 7 C22.278125 7.165 21.55625 7.33 20.8125 7.5 C16.73759826 9.67328093 15.1695735 13.03014211 13 17 C11.35 16.67 9.7 16.34 8 16 C8 15.34 8 14.68 8 14 C4.7 13.34 1.4 12.68 -2 12 C-3 7 -3 7 -2 5 C-1.34 5 -0.68 5 0 5 C0 3.35 0 1.7 0 0 Z " fill="#70694E" transform="translate(21,76)"/>
<path d="M0 0 C0.66 0.66 1.32 1.32 2 2 C3.31747324 2.69748583 4.64914193 3.36959957 6 4 C5.0925 4.268125 4.185 4.53625 3.25 4.8125 C0.06717503 5.75463872 0.06717503 5.75463872 -1.765625 7.54296875 C-4.88318915 9.57592579 -7.30722081 9.46870526 -11 9.5 C-12.216875 9.5309375 -13.43375 9.561875 -14.6875 9.59375 C-18 9 -18 9 -20.4375 6.59375 C-22 4 -22 4 -22 2 C-22.66 2 -23.32 2 -24 2 C-23.67 4.31 -23.34 6.62 -23 9 C-25.1519437 5.77208445 -25.20086443 4.71599191 -25 1 C-18.2364594 -2.97947854 -7.48140584 -1.55191589 0 0 Z " fill="#6A4E40" transform="translate(65,69)"/>
<path d="M0 0 C1.41778293 2.83556587 0.86257622 4.9908706 0.5625 8.125 C0.46066406 9.22070312 0.35882813 10.31640625 0.25390625 11.4453125 C0.17011719 12.28835937 0.08632812 13.13140625 0 14 C0.99 14.33 1.98 14.66 3 15 C2.67 16.98 2.34 18.96 2 21 C2.53625 21.2475 3.0725 21.495 3.625 21.75 C6.66095572 23.34787143 9.33303432 24.81793717 12 27 C12.375 30.25 12.375 30.25 12 33 C11.34 33 10.68 33 10 33 C9.58253392 35.87364791 9.58253392 35.87364791 10 39 C12.37402417 40.80787306 12.37402417 40.80787306 15 42 C15.33 42.66 15.66 43.32 16 44 C18.11015954 45.12706706 18.11015954 45.12706706 20.5625 46.125 C21.38878906 46.47820312 22.21507813 46.83140625 23.06640625 47.1953125 C23.70449219 47.46085937 24.34257813 47.72640625 25 48 C25 49.65 25 51.3 25 53 C24.34 53 23.68 53 23 53 C23 52.34 23 51.68 23 51 C21.6078125 50.9071875 21.6078125 50.9071875 20.1875 50.8125 C17 50 17 50 15.5 47.75 C15.005 46.8425 14.51 45.935 14 45 C12.6078125 43.948125 12.6078125 43.948125 11.1875 42.875 C2.90949303 36.22376554 0.26775253 25.0560709 -1 15 C-1.2488434 10.31805742 -1.35616363 5.67807233 -1 1 C-0.67 0.67 -0.34 0.34 0 0 Z " fill="#413E31" transform="translate(9,48)"/>
<path d="M0 0 C1.32 0 2.64 0 4 0 C4 2.64 4 5.28 4 8 C2.54182203 8.16802051 1.0834516 8.33437143 -0.375 8.5 C-1.18710938 8.5928125 -1.99921875 8.685625 -2.8359375 8.78125 C-5 9 -5 9 -7 9 C-7 9.99 -7 10.98 -7 12 C-5.02 11.67 -3.04 11.34 -1 11 C-1 11.66 -1 12.32 -1 13 C4.445 13.495 4.445 13.495 10 14 C10 14.33 10 14.66 10 15 C3.87421989 15.60823349 -2.15330087 16.05429897 -8.3125 15.9375 C-13.00446241 15.8883695 -16.5990236 16.40815747 -21 18 C-21.99 18.33 -22.98 18.66 -24 19 C-23.67 17.35 -23.34 15.7 -23 14 C-22.01 14 -21.02 14 -20 14 C-20 12.02 -20 10.04 -20 8 C-18 9 -18 9 -16 12 C-15.34 11.34 -14.68 10.68 -14 10 C-12.68 10 -11.36 10 -10 10 C-9.67 9.01 -9.34 8.02 -9 7 C-6.9375 5.3125 -6.9375 5.3125 -5 4 C-5 4.66 -5 5.32 -5 6 C-3.35 6 -1.7 6 0 6 C0 4.02 0 2.04 0 0 Z " fill="#331F13" transform="translate(66,24)"/>
<path d="M0 0 C1.26237731 2.52475462 1.09856404 4.31200466 1.0625 7.125 C1.05347656 8.03507812 1.04445313 8.94515625 1.03515625 9.8828125 C1.02355469 10.58148438 1.01195313 11.28015625 1 12 C1.66 12.33 2.32 12.66 3 13 C3.39253254 17.44870215 2.15305957 20.14243493 0 24 C-0.66 24 -1.32 24 -2 24 C-2 25.32 -2 26.64 -2 28 C-2.94875 28.28875 -3.8975 28.5775 -4.875 28.875 C-8.05211578 29.76825109 -8.05211578 29.76825109 -10 32 C-9.34 32.33 -8.68 32.66 -8 33 C-8 33.66 -8 34.32 -8 35 C-7.34 35 -6.68 35 -6 35 C-6.33 35.66 -6.66 36.32 -7 37 C-10.465 35.515 -10.465 35.515 -14 34 C-14 33.01 -14 32.02 -14 31 C-12.37064759 29.62131719 -10.70250393 28.28725907 -9 27 C-8.67 26.34 -8.34 25.68 -8 25 C-7.34 25 -6.68 25 -6 25 C-5.26167392 20.67551867 -4.60825035 16.34464536 -4 12 C-3.01 11.67 -2.02 11.34 -1 11 C-1.01160156 10.28972656 -1.02320312 9.57945313 -1.03515625 8.84765625 C-1.04869141 7.46900391 -1.04869141 7.46900391 -1.0625 6.0625 C-1.07410156 5.14597656 -1.08570312 4.22945312 -1.09765625 3.28515625 C-1 1 -1 1 0 0 Z " fill="#BAB3C1" transform="translate(87,50)"/>
<path d="M0 0 C1.1875 1.6875 1.1875 1.6875 2 4 C0.36164532 7.82282758 -1.24569746 9.37313557 -5 11 C-5.33 11.66 -5.66 12.32 -6 13 C-11.36842105 13.35789474 -11.36842105 13.35789474 -13.875 11.9375 C-15.58196395 8.99772876 -15.18799766 6.32129197 -15 3 C-14.25234375 2.95101562 -13.5046875 2.90203125 -12.734375 2.8515625 C-11.74953125 2.77679688 -10.7646875 2.70203125 -9.75 2.625 C-8.28820313 2.52058594 -8.28820313 2.52058594 -6.796875 2.4140625 C-4.10366811 2.01534751 -2.33036721 1.36492937 0 0 Z " fill="#8B5F41" transform="translate(67,86)"/>
<path d="M0 0 C0.99 0.495 0.99 0.495 2 1 C2 2.98 2 4.96 2 7 C2.99 7 3.98 7 5 7 C5 6.01 5 5.02 5 4 C5.99 4.33 6.98 4.66 8 5 C8 6.32 8 7.64 8 9 C9.32 9.33 10.64 9.66 12 10 C12 13.63 12 17.26 12 21 C10.68 21.33 9.36 21.66 8 22 C8 21.01 8 20.02 8 19 C6.824375 18.566875 6.824375 18.566875 5.625 18.125 C3 17 3 17 1 15 C0.69400937 12.43083343 0.48912913 9.95241616 0.375 7.375 C0.33632812 6.66859375 0.29765625 5.9621875 0.2578125 5.234375 C0.16352276 3.49001476 0.08067109 1.74504309 0 0 Z " fill="#3B271B" transform="translate(77,27)"/>
<path d="M0 0 C3.58082722 2.26157509 5.28834711 4.00326626 6.3125 8.0625 C7 12 7 12 7 15 C6.01 15.495 6.01 15.495 5 16 C4.59270772 18.32156597 4.25561323 20.6568787 4 23 C3.34 22.01 2.68 21.02 2 20 C1.34 20 0.68 20 0 20 C-0.33 20.99 -0.66 21.98 -1 23 C-1.99 23.33 -2.98 23.66 -4 24 C-4 23.34 -4 22.68 -4 22 C-3.34 21.67 -2.68 21.34 -2 21 C-1.27840576 19.35636866 -0.60648579 17.68949614 0 16 C0.66 16 1.32 16 2 16 C1.67 14.845 1.34 13.69 1 12.5 C-0.08401934 8.22499413 -0.15701377 4.39638547 0 0 Z " fill="#9B755E" transform="translate(79,46)"/>
<path d="M0 0 C0.99 0.33 1.98 0.66 3 1 C3.33 1.99 3.66 2.98 4 4 C5.65 3.67 7.3 3.34 9 3 C8.67 3.99 8.34 4.98 8 6 C6.35 6 4.7 6 3 6 C2.773125 6.639375 2.54625 7.27875 2.3125 7.9375 C1 10 1 10 -1.625 10.75 C-2.40875 10.8325 -3.1925 10.915 -4 11 C-4 11.66 -4 12.32 -4 13 C-8.17737474 14.59138085 -11.53160785 15.21278058 -16 15 C-12.59674498 9.16584853 -7.20540879 7.69582927 -1 6 C-0.01 6 0.98 6 2 6 C1.34 4.02 0.68 2.04 0 0 Z " fill="#6C6652" transform="translate(82,89)"/>
<path d="M0 0 C1.41778293 2.83556587 0.86257622 4.9908706 0.5625 8.125 C0.46066406 9.22070312 0.35882813 10.31640625 0.25390625 11.4453125 C0.17011719 12.28835937 0.08632812 13.13140625 0 14 C0.99 14.33 1.98 14.66 3 15 C2.67 16.98 2.34 18.96 2 21 C2.53625 21.2475 3.0725 21.495 3.625 21.75 C6.66095572 23.34787143 9.33303432 24.81793717 12 27 C12.375 30.25 12.375 30.25 12 33 C11.34 32.67 10.68 32.34 10 32 C10.33 30.68 10.66 29.36 11 28 C10.34 28.33 9.68 28.66 9 29 C6.6670134 29.04022391 4.33293334 29.04320247 2 29 C-0.42908957 19.48606587 -1.74920311 10.84049465 -1 1 C-0.67 0.67 -0.34 0.34 0 0 Z " fill="#4D4840" transform="translate(9,48)"/>
<path d="M0 0 C0.73476563 0.49113281 0.73476563 0.49113281 1.484375 0.9921875 C5.04269563 2.41772589 8.48203011 2.21154348 12.25 2.125 C12.99507812 2.11597656 13.74015625 2.10695313 14.5078125 2.09765625 C16.33868059 2.07418358 18.16938238 2.03831525 20 2 C20 2.99 20 3.98 20 5 C16.33236683 7.44508878 14.36568225 7.29885724 10 7.3125 C8.14375 7.33763672 8.14375 7.33763672 6.25 7.36328125 C3 7 3 7 1.0625 5.73046875 C0 4 0 4 0 0 Z " fill="#B38873" transform="translate(44,71)"/>
<path d="M0 0 C1.4540625 0.0309375 1.4540625 0.0309375 2.9375 0.0625 C2.9375 3.3625 2.9375 6.6625 2.9375 10.0625 C4.2575 10.7225 5.5775 11.3825 6.9375 12.0625 C7.5975 12.7225 8.2575 13.3825 8.9375 14.0625 C11.00624034 14.7050235 11.00624034 14.7050235 12.9375 15.0625 C12.9375 15.7225 12.9375 16.3825 12.9375 17.0625 C13.700625 17.000625 14.46375 16.93875 15.25 16.875 C17.9375 17.0625 17.9375 17.0625 19.75 18.5625 C20.141875 19.0575 20.53375 19.5525 20.9375 20.0625 C16.85031305 20.30292276 13.76070557 19.48508812 9.9375 18.0625 C9.9375 17.4025 9.9375 16.7425 9.9375 16.0625 C9.07125 15.835625 8.205 15.60875 7.3125 15.375 C3.14507779 13.75433581 1.03190831 12.30426109 -2.0625 9.0625 C-2.3125 5.875 -2.3125 5.875 -2.0625 3.0625 C-2.7225 2.4025 -3.3825 1.7425 -4.0625 1.0625 C-3.0625 0.0625 -3.0625 0.0625 0 0 Z " fill="#D4AC94" transform="translate(13.0625,59.9375)"/>
<path d="M0 0 C0 2.31 0 4.62 0 7 C1.98 7 3.96 7 6 7 C6 7.99 6 8.98 6 10 C5.030625 10.12375 4.06125 10.2475 3.0625 10.375 C2.051875 10.58125 1.04125 10.7875 0 11 C-0.33 11.66 -0.66 12.32 -1 13 C-0.071875 13.2165625 -0.071875 13.2165625 0.875 13.4375 C3 14 3 14 5 15 C5 15.99 5 16.98 5 18 C1.95613276 18.08226668 -0.07175348 17.97608217 -3 17 C-3 11.72 -3 6.44 -3 1 C-1 0 -1 0 0 0 Z " fill="#987665" transform="translate(45,42)"/>
<path d="M0 0 C0.66 0.33 1.32 0.66 2 1 C2.33 8.92 2.66 16.84 3 25 C9.435 24.505 9.435 24.505 16 24 C16.33 24.99 16.66 25.98 17 27 C16.10796875 26.98839844 15.2159375 26.97679688 14.296875 26.96484375 C13.12640625 26.95582031 11.9559375 26.94679688 10.75 26.9375 C9.58984375 26.92589844 8.4296875 26.91429688 7.234375 26.90234375 C4.59022872 26.98217908 2.50173909 27.21356222 0 28 C-0.33 29.32 -0.66 30.64 -1 32 C-0.9278125 31.030625 -0.855625 30.06125 -0.78125 29.0625 C-0.09662052 19.35809063 0.11640814 9.72654643 0 0 Z " fill="#C09D90" transform="translate(40,42)"/>
<path d="M0 0 C3.96 0.33 7.92 0.66 12 1 C12.33 2.32 12.66 3.64 13 5 C11.35 6.32 9.7 7.64 8 9 C8 8.34 8 7.68 8 7 C5.36 7 2.72 7 0 7 C0 4.69 0 2.38 0 0 Z " fill="#F5CAB2" transform="translate(58,61)"/>
<path d="M0 0 C0.33 0 0.66 0 1 0 C1.33808686 2.06172613 1.67027361 4.1244203 2 6.1875 C2.185625 7.33605469 2.37125 8.48460937 2.5625 9.66796875 C2.93489477 12.50415393 3.08596021 15.14719564 3 18 C2.34 18.33 1.68 18.66 1 19 C0.27840576 20.64363134 -0.39351421 22.31050386 -1 24 C-1.66 24 -2.32 24 -3 24 C-3.33 25.32 -3.66 26.64 -4 28 C-4.99 28 -5.98 28 -7 28 C-6.6875 26.0625 -6.6875 26.0625 -6 24 C-5.01 23.67 -4.02 23.34 -3 23 C-1.62440584 15.34742277 -0.58006237 7.75451806 0 0 Z " fill="#BB8C71" transform="translate(78,44)"/>
<path d="M0 0 C1.32 0.33 2.64 0.66 4 1 C3.14285714 9.57142857 3.14285714 9.57142857 1 13 C-0.65 13 -2.3 13 -4 13 C-3.67 10.36 -3.34 7.72 -3 5 C-2.34 5 -1.68 5 -1 5 C-0.67 3.35 -0.34 1.7 0 0 Z " fill="#AB7E64" transform="translate(31,61)"/>
<path d="M0 0 C5.75 0.875 5.75 0.875 8 2 C8 2.66 8 3.32 8 4 C9.423125 4.1546875 9.423125 4.1546875 10.875 4.3125 C14 5 14 5 16 8 C16.125 10.6875 16.125 10.6875 16 13 C16.99 13.33 17.98 13.66 19 14 C18.01 14.495 18.01 14.495 17 15 C14.875 14.0625 14.875 14.0625 13 13 C13 11.35 13 9.7 13 8 C12.46375 7.896875 11.9275 7.79375 11.375 7.6875 C8.37497956 6.81907303 5.7620465 5.44379704 3 4 C3 3.34 3 2.68 3 2 C2.01 1.67 1.02 1.34 0 1 C0 0.67 0 0.34 0 0 Z " fill="#5A543A" transform="translate(21,88)"/>
<path d="M0 0 C-1.37700024 2.96584667 -2.67664502 5.67664502 -5 8 C-8.1875 8.25 -8.1875 8.25 -11 8 C-11.33 6.35 -11.66 4.7 -12 3 C-10.37604003 2.49663233 -8.75079459 1.99741024 -7.125 1.5 C-6.22007813 1.2215625 -5.31515625 0.943125 -4.3828125 0.65625 C-2 0 -2 0 0 0 Z " fill="#DBB49C" transform="translate(66,91)"/>
<path d="M0 0 C1.44207941 2.88415883 1.09394887 5.41721528 1.0625 8.625 C1.05347656 9.81351563 1.04445313 11.00203125 1.03515625 12.2265625 C1.02355469 13.14179687 1.01195313 14.05703125 1 15 C0.01 15.33 -0.98 15.66 -2 16 C-2.33 19.3 -2.66 22.6 -3 26 C-3.99 25.67 -4.98 25.34 -6 25 C-5.855625 24.154375 -5.71125 23.30875 -5.5625 22.4375 C-4.9941203 18.96406851 -4.48797607 15.48554338 -4 12 C-3.01 11.67 -2.02 11.34 -1 11 C-1.01160156 10.28972656 -1.02320312 9.57945313 -1.03515625 8.84765625 C-1.04869141 7.46900391 -1.04869141 7.46900391 -1.0625 6.0625 C-1.07410156 5.14597656 -1.08570312 4.22945312 -1.09765625 3.28515625 C-1 1 -1 1 0 0 Z " fill="#B69382" transform="translate(87,50)"/>
<path d="M0 0 C1.32 0.33 2.64 0.66 4 1 C3.67 1.66 3.34 2.32 3 3 C2.01 2.67 1.02 2.34 0 2 C-0.33 2.99 -0.66 3.98 -1 5 C-3.30325837 6.38603158 -5.52627769 7.58859857 -7.9375 8.75 C-8.58396484 9.07871094 -9.23042969 9.40742187 -9.89648438 9.74609375 C-11.56500556 10.56735963 -13.28060285 11.29139996 -15 12 C-15.66 11.67 -16.32 11.34 -17 11 C-16.05125 10.4225 -15.1025 9.845 -14.125 9.25 C-11.23865902 7.17183449 -10.15904259 6.24531925 -9 3 C-6.36 3 -3.72 3 -1 3 C-0.67 2.01 -0.34 1.02 0 0 Z " fill="#6D654A" transform="translate(78,86)"/>
<path d="M0 0 C0.66 0.33 1.32 0.66 2 1 C1.67 1.99 1.34 2.98 1 4 C-1.21484375 4.984375 -1.21484375 4.984375 -3.9375 5.75 C-5.28134766 6.14445312 -5.28134766 6.14445312 -6.65234375 6.546875 C-9 7 -9 7 -11 6 C-11 5.01 -11 4.02 -11 3 C-12.65 3 -14.3 3 -16 3 C-15.67 2.34 -15.34 1.68 -15 1 C-14.00097656 1.01160156 -13.00195312 1.02320312 -11.97265625 1.03515625 C-10.68230469 1.04417969 -9.39195313 1.05320312 -8.0625 1.0625 C-6.13083984 1.07990234 -6.13083984 1.07990234 -4.16015625 1.09765625 C-1.13701597 1.36532549 -1.13701597 1.36532549 0 0 Z " fill="#6D5143" transform="translate(62,76)"/>
<path d="M0 0 C0.99 0 1.98 0 3 0 C2.67 1.98 2.34 3.96 2 6 C2.66 6 3.32 6 4 6 C3.67 7.65 3.34 9.3 3 11 C2.01 11 1.02 11 0 11 C0 10.01 0 9.02 0 8 C-0.78375 7.71125 -1.5675 7.4225 -2.375 7.125 C-5 6 -5 6 -7 4 C-5.02 4 -3.04 4 -1 4 C-0.67 2.68 -0.34 1.36 0 0 Z " fill="#2C1A0F" transform="translate(85,38)"/>
<path d="M0 0 C5.8997555 5.58924205 5.8997555 5.58924205 7 9 C6.625 11.25 6.625 11.25 6 13 C2.83884224 11.63016497 2.0072908 11.0109362 0 8 C-0.25760279 5.30547479 -0.08900053 2.71451625 0 0 Z " fill="#565137" transform="translate(43,84)"/>
<path d="M0 0 C0.66 0.33 1.32 0.66 2 1 C-2.03523352 5.81123996 -6.04467233 10.13242719 -11 14 C-11.66 13.67 -12.32 13.34 -13 13 C-11.92492371 11.70145279 -10.83956264 10.41141639 -9.75 9.125 C-9.14671875 8.40570313 -8.5434375 7.68640625 -7.921875 6.9453125 C-6.02912366 5.02947882 -4.46342273 4.03550955 -2 3 C-2 2.34 -2 1.68 -2 1 C-1.34 0.67 -0.68 0.34 0 0 Z " fill="#A3A2BD" transform="translate(29,18)"/>
<path d="M0 0 C1.00289062 0.10183594 2.00578125 0.20367187 3.0390625 0.30859375 C3.80992188 0.39238281 4.58078125 0.47617187 5.375 0.5625 C5.375 1.8825 5.375 3.2025 5.375 4.5625 C3.04205225 4.60491723 0.70797433 4.60342937 -1.625 4.5625 C-1.955 4.2325 -2.285 3.9025 -2.625 3.5625 C-4.29117115 3.52186168 -5.95888095 3.519779 -7.625 3.5625 C-7.625 2.5725 -7.625 1.5825 -7.625 0.5625 C-4.89657939 -0.80171031 -3.01546682 -0.31557211 0 0 Z " fill="#4E362A" transform="translate(66.625,32.4375)"/>
<path d="M0 0 C3.01191399 1.74373968 4.72504283 3.11847904 5.77734375 6.4921875 C6.26214204 8.99049108 6.67726329 11.47590991 7 14 C3.36713045 12.78904348 2.56993248 11.20640617 0.78515625 7.921875 C-0.31643358 5.22544616 -0.27986167 2.86858211 0 0 Z " fill="#735645" transform="translate(79,46)"/>
<path d="M0 0 C0 0.66 0 1.32 0 2 C-0.84304687 2.03738281 -1.68609375 2.07476563 -2.5546875 2.11328125 C-4.19824219 2.21189453 -4.19824219 2.21189453 -5.875 2.3125 C-6.96554688 2.37050781 -8.05609375 2.42851562 -9.1796875 2.48828125 C-10.57574219 2.74158203 -10.57574219 2.74158203 -12 3 C-12.99 4.485 -12.99 4.485 -14 6 C-17 7.125 -17 7.125 -20 8 C-20.99 8.495 -20.99 8.495 -22 9 C-21.1875 7.0625 -21.1875 7.0625 -20 5 C-19.01 4.67 -18.02 4.34 -17 4 C-16.34 3.01 -15.68 2.02 -15 1 C-9.98729298 -0.10279554 -5.10196601 -0.08950818 0 0 Z " fill="#786461" transform="translate(65,23)"/>
<path d="M0 0 C1.65 0 3.3 0 5 0 C3.68 0.33 2.36 0.66 1 1 C1 2.98 1 4.96 1 7 C-0.32 7 -1.64 7 -3 7 C-3 5.68 -3 4.36 -3 3 C-3.391875 3.474375 -3.78375 3.94875 -4.1875 4.4375 C-6.40808374 6.35179633 -8.13375709 6.61266988 -11 7 C-10 4 -10 4 -8 2 C-5.31160615 1.73008094 -2.70858064 1.91262643 0 2 C0 1.34 0 0.68 0 0 Z " fill="#563E32" transform="translate(65,23)"/>
<path d="M0 0 C3.74981988 1.24993996 4.86618551 2.7230706 7 6 C6.75 8.3125 6.75 8.3125 6 10 C1.79373966 8.49776416 0.26099979 5.71449966 -2 2 C-1.34 2 -0.68 2 0 2 C0 1.34 0 0.68 0 0 Z " fill="#2E2214" transform="translate(45,81)"/>
<path d="M0 0 C-0.33 1.98 -0.66 3.96 -1 6 C-1.66 6 -2.32 6 -3 6 C-3.33 7.32 -3.66 8.64 -4 10 C-4.6690776 8.68872739 -5.33519806 7.3759455 -6 6.0625 C-6.37125 5.33160156 -6.7425 4.60070312 -7.125 3.84765625 C-8 2 -8 2 -8 1 C-2.25 0 -2.25 0 0 0 Z " fill="#312D1E" transform="translate(20,76)"/>
<path d="M0 0 C0.39253254 4.44870215 -0.84694043 7.14243493 -3 11 C-4.32 10.67 -5.64 10.34 -7 10 C-4.54716981 0 -4.54716981 0 0 0 Z " fill="#E0BCAF" transform="translate(90,63)"/>
<path d="M0 0 C2 1 2 1 3 3 C2.67 3.66 2.34 4.32 2 5 C2.928125 5.2165625 2.928125 5.2165625 3.875 5.4375 C6 6 6 6 8 7 C8 7.99 8 8.98 8 10 C4.95613276 10.08226668 2.92824652 9.97608217 0 9 C0 6.03 0 3.06 0 0 Z " fill="#92725E" transform="translate(42,50)"/>
<path d="M0 0 C1.98 0.99 3.96 1.98 6 3 C6 3.66 6 4.32 6 5 C6.99 5.33 7.98 5.66 9 6 C10.1875 9.0625 10.1875 9.0625 11 12 C10.01 11.67 9.02 11.34 8 11 C7.6278958 9.67696283 7.29369827 8.34262065 7 7 C6.34 6.67 5.68 6.34 5 6 C5 6.99 5 7.98 5 9 C4.01 9 3.02 9 2 9 C1.34 6.03 0.68 3.06 0 0 Z " fill="#624D46" transform="translate(77,25)"/>
<path d="M0 0 C3.0831351 1.19899698 6.06279492 2.47700477 9 4 C9 4.99 9 5.98 9 7 C9.99 7.33 10.98 7.66 12 8 C11.67 8.33 11.34 8.66 11 9 C10.63239269 11.32817964 10.29758419 13.6618385 10 16 C9.67 16 9.34 16 9 16 C8.7525 14.7625 8.505 13.525 8.25 12.25 C7.32160467 8.44223364 5.99531144 6.59593658 3 4 C3 3.34 3 2.68 3 2 C2.01 1.67 1.02 1.34 0 1 C0 0.67 0 0.34 0 0 Z " fill="#4A3325" transform="translate(76,42)"/>
<path d="M0 0 C2.31 0 4.62 0 7 0 C7 0.66 7 1.32 7 2 C6.34 2 5.68 2 5 2 C5 2.99 5 3.98 5 5 C4.34 5 3.68 5 3 5 C3 5.66 3 6.32 3 7 C1.68 6.67 0.36 6.34 -1 6 C-0.67 4.02 -0.34 2.04 0 0 Z " fill="#513B30" transform="translate(70,24)"/>
<path d="M0 0 C2.97 0 5.94 0 9 0 C9 1.32 9 2.64 9 4 C2.375 4.125 2.375 4.125 -1 3 C-0.67 2.01 -0.34 1.02 0 0 Z " fill="#846C5C" transform="translate(61,57)"/>
<path d="M0 0 C3.3 0.33 6.6 0.66 10 1 C9.67 1.99 9.34 2.98 9 4 C8.34 4 7.68 4 7 4 C7 4.99 7 5.98 7 7 C6.34 7 5.68 7 5 7 C4 6 3 5 2 4 C1.34 4 0.68 4 0 4 C0 2.68 0 1.36 0 0 Z " fill="#4D4E4A" transform="translate(51,98)"/>
<path d="M0 0 C0.33 0.66 0.66 1.32 1 2 C1.66 2.165 2.32 2.33 3 2.5 C3.66 2.665 4.32 2.83 5 3 C5.33 3.66 5.66 4.32 6 5 C5.67 5.66 5.34 6.32 5 7 C2.36 7 -0.28 7 -3 7 C-3.33 6.01 -3.66 5.02 -4 4 C-2.68 3.67 -1.36 3.34 0 3 C0 2.01 0 1.02 0 0 Z " fill="#4D4631" transform="translate(72,82)"/>
<path d="M0 0 C1.98 0.66 3.96 1.32 6 2 C6 2.33 6 2.66 6 3 C3.69 3.66 1.38 4.32 -1 5 C-1 4.34 -1 3.68 -1 3 C-8.92 3.495 -8.92 3.495 -17 4 C-17.33 3.34 -17.66 2.68 -18 2 C-12.06 2 -6.12 2 0 2 C0 1.34 0 0.68 0 0 Z " fill="#896C5F" transform="translate(65,70)"/>
<path d="M0 0 C3.72433382 1.2125738 7.37802806 2.50859979 11 4 C11 4.66 11 5.32 11 6 C11.763125 5.938125 12.52625 5.87625 13.3125 5.8125 C16 6 16 6 17.8125 7.5 C18.204375 7.995 18.59625 8.49 19 9 C14.91281305 9.24042276 11.82320557 8.42258812 8 7 C8 6.34 8 5.68 8 5 C7.05125 4.731875 6.1025 4.46375 5.125 4.1875 C2 3 2 3 0 0 Z " fill="#AA8E7D" transform="translate(15,71)"/>
<path d="M0 0 C2.1385485 2.1385485 2.42655063 3.13275314 3 6 C2.01 6 1.02 6 0 6 C-0.33 7.65 -0.66 9.3 -1 11 C-1.66 10.67 -2.32 10.34 -3 10 C-3.36923077 4.58461538 -3.36923077 4.58461538 -1.5 1.625 C-1.005 1.08875 -0.51 0.5525 0 0 Z " fill="#584540" transform="translate(43,32)"/>
<path d="M0 0 C0.99 0.495 0.99 0.495 2 1 C2 2.98 2 4.96 2 7 C3.32 7.66 4.64 8.32 6 9 C5.34 10.65 4.68 12.3 4 14 C3.01 14 2.02 14 1 14 C0.67 9.38 0.34 4.76 0 0 Z " fill="#432D21" transform="translate(77,27)"/>
<path d="M0 0 C0.66 0 1.32 0 2 0 C2.33 0.99 2.66 1.98 3 3 C3.66 3.66 4.32 4.32 5 5 C4.67 5.99 4.34 6.98 4 8 C2.35 8 0.7 8 -1 8 C-0.67 5.36 -0.34 2.72 0 0 Z " fill="#B4866C" transform="translate(28,66)"/>
<path d="M0 0 C0.78375 0.04125 1.5675 0.0825 2.375 0.125 C2.045 2.105 1.715 4.085 1.375 6.125 C0.715 6.125 0.055 6.125 -0.625 6.125 C-0.955 5.465 -1.285 4.805 -1.625 4.125 C-2.285 5.445 -2.945 6.765 -3.625 8.125 C-4.25 5.25 -4.25 5.25 -4.625 2.125 C-2.625 0.125 -2.625 0.125 0 0 Z " fill="#493328" transform="translate(48.625,28.875)"/>
<path d="M0 0 C1.32 0.66 2.64 1.32 4 2 C4 2.66 4 3.32 4 4 C4.66 4 5.32 4 6 4 C6 3.01 6 2.02 6 1 C6.66 1 7.32 1 8 1 C8 2.32 8 3.64 8 5 C1.25 5.125 1.25 5.125 -1 4 C-0.67 2.68 -0.34 1.36 0 0 Z " fill="#676454" transform="translate(52,101)"/>
<path d="M0 0 C-0.33 3.3 -0.66 6.6 -1 10 C-1.33 10 -1.66 10 -2 10 C-2 8.35 -2 6.7 -2 5 C-3.98 5.66 -5.96 6.32 -8 7 C-2.34042553 0 -2.34042553 0 0 0 Z " fill="#5F4536" transform="translate(82,65)"/>
<path d="M0 0 C1.98 0 3.96 0 6 0 C5.34 1.98 4.68 3.96 4 6 C2.68 6 1.36 6 0 6 C0 4.02 0 2.04 0 0 Z " fill="#EABBA0" transform="translate(44,61)"/>
<path d="M0 0 C0.66 0 1.32 0 2 0 C1.67 1.32 1.34 2.64 1 4 C-0.32 4.33 -1.64 4.66 -3 5 C-3 5.99 -3 6.98 -3 8 C-4.32 8 -5.64 8 -7 8 C-6.34 6.35 -5.68 4.7 -5 3 C-3.68 3 -2.36 3 -1 3 C-0.67 2.01 -0.34 1.02 0 0 Z " fill="#473023" transform="translate(60,26)"/>
<path d="M0 0 C0.99 0 1.98 0 3 0 C3 0.66 3 1.32 3 2 C2.01 2 1.02 2 0 2 C-0.268125 2.928125 -0.53625 3.85625 -0.8125 4.8125 C-1.91148371 7.76240366 -2.62418561 9.05615186 -5 11 C-5 6.51187917 -3.15295167 3.15295167 0 0 Z " fill="#655F42" transform="translate(40,83)"/>
<path d="M0 0 C0.33 1.32 0.66 2.64 1 4 C2.98 4 4.96 4 7 4 C7 3.34 7 2.68 7 2 C7.66 2 8.32 2 9 2 C9 3.32 9 4.64 9 6 C6.03 5.67 3.06 5.34 0 5 C0 4.34 0 3.68 0 3 C-1.32 2.67 -2.64 2.34 -4 2 C-2.68 1.34 -1.36 0.68 0 0 Z " fill="#BEADAF" transform="translate(34,76)"/>
<path d="M0 0 C1.33333333 0 2.66666667 0 4 0 C4 2.31 4 4.62 4 7 C3.34 6.01 2.68 5.02 2 4 C1.34 4 0.68 4 0 4 C-0.33 4.99 -0.66 5.98 -1 7 C-1.99 7.33 -2.98 7.66 -4 8 C-4 7.34 -4 6.68 -4 6 C-3.34 5.67 -2.68 5.34 -2 5 C-1.27840576 3.35636866 -0.60648579 1.68949614 0 0 Z " fill="#966E59" transform="translate(79,62)"/>
<path d="M0 0 C1.258125 -0.020625 2.51625 -0.04125 3.8125 -0.0625 C4.52019531 -0.07410156 5.22789063 -0.08570313 5.95703125 -0.09765625 C8 0 8 0 11 1 C11 1.99 11 2.98 11 4 C7.37 3.34 3.74 2.68 0 2 C0 1.34 0 0.68 0 0 Z " fill="#9F8170" transform="translate(62,48)"/>
<path d="M0 0 C-0.495 0.4125 -0.99 0.825 -1.5 1.25 C-3.43386092 3.12202338 -3.43386092 3.12202338 -3 7 C-3.99 7 -4.98 7 -6 7 C-6 4.69 -6 2.38 -6 0 C-3.50907189 -1.24546405 -2.58919267 -0.7767578 0 0 Z " fill="#CF9F82" transform="translate(51,42)"/>
<path d="M0 0 C0 0.66 0 1.32 0 2 C-1.65 2 -3.3 2 -5 2 C-5.268125 2.639375 -5.53625 3.27875 -5.8125 3.9375 C-7 6 -7 6 -10 7 C-9.375 4.625 -9.375 4.625 -8 2 C-5.23085693 0.78849991 -3.03028259 0 0 0 Z " fill="#594133" transform="translate(73,72)"/>
<path d="M0 0 C0.33 0 0.66 0 1 0 C1.1875 2.375 1.1875 2.375 1 5 C0.01 5.66 -0.98 6.32 -2 7 C-2.33 7.99 -2.66 8.98 -3 10 C-4.65 9.67 -6.3 9.34 -8 9 C-6.8553125 8.1646875 -6.8553125 8.1646875 -5.6875 7.3125 C-3.03568819 5.03070844 -1.68044905 3.02480829 0 0 Z " fill="#DBAB92" transform="translate(74,62)"/>
<path d="M0 0 C0.98120464 3.05263664 0.98120464 4.94736336 0 8 C-1.65 7.67 -3.3 7.34 -5 7 C-4.34 5.68 -3.68 4.36 -3 3 C-2.34 3 -1.68 3 -1 3 C-0.67 2.01 -0.34 1.02 0 0 Z " fill="#D9B19D" transform="translate(30,51)"/>
<path d="M0 0 C0.33 0 0.66 0 1 0 C1.223293 2.06093408 1.42802887 4.1238839 1.625 6.1875 C1.74101563 7.33605469 1.85703125 8.48460937 1.9765625 9.66796875 C2.00023426 13.03330416 1.47419799 15.01221706 0 18 C-0.33 18 -0.66 18 -1 18 C-0.505 9.09 -0.505 9.09 0 0 Z " fill="#C09277" transform="translate(78,44)"/>
<path d="M0 0 C1.32 0 2.64 0 4 0 C4.66 3.3 5.32 6.6 6 10 C4.68 9.34 3.36 8.68 2 8 C2.04125 7.05125 2.0825 6.1025 2.125 5.125 C2.34973818 1.89755144 2.34973818 1.89755144 0 0 Z " fill="#A28269" transform="translate(9,61)"/>
<path d="M0 0 C0.66 0 1.32 0 2 0 C2.33 2.31 2.66 4.62 3 7 C2.01 7 1.02 7 0 7 C-0.33 8.32 -0.66 9.64 -1 11 C-1.14285714 3.57142857 -1.14285714 3.57142857 0 0 Z " fill="#B59283" transform="translate(40,63)"/>
<path d="M0 0 C0.66 0.33 1.32 0.66 2 1 C0.875 3 0.875 3 -1 5 C-4.1875 5.25 -4.1875 5.25 -7 5 C-6.67 4.34 -6.34 3.68 -6 3 C-5.01 3 -4.02 3 -3 3 C-3 2.34 -3 1.68 -3 1 C-2.01 0.67 -1.02 0.34 0 0 Z " fill="#E9C7BE" transform="translate(22,54)"/>
<path d="M0 0 C-0.33 1.65 -0.66 3.3 -1 5 C-1.99 5 -2.98 5 -4 5 C-3.34 4.01 -2.68 3.02 -2 2 C-3.98 2.33 -5.96 2.66 -8 3 C-4.93882432 0.37613513 -4.26826873 0 0 0 Z " fill="#8F6E52" transform="translate(68,89)"/>
<path d="M0 0 C-0.66 1.32 -1.32 2.64 -2 4 C-3.65 4 -5.3 4 -7 4 C-6.67 3.01 -6.34 2.02 -6 1 C-4 0 -4 0 0 0 Z " fill="#E4B9A2" transform="translate(63,74)"/>
<path d="M0 0 C1.32 0 2.64 0 4 0 C3.67 1.98 3.34 3.96 3 6 C2.01 6 1.02 6 0 6 C0 4.02 0 2.04 0 0 Z " fill="#3C271B" transform="translate(66,24)"/>
<path d="M0 0 C0.66 0.66 1.32 1.32 2 2 C1.625 4.125 1.625 4.125 1 6 C-2.16115776 4.63016497 -2.9927092 4.0109362 -5 1 C-2.525 1.495 -2.525 1.495 0 2 C0 1.34 0 0.68 0 0 Z " fill="#332B1A" transform="translate(50,85)"/>
<path d="M0 0 C0.99 0.66 1.98 1.32 3 2 C3 3.32 3 4.64 3 6 C1.68 6 0.36 6 -1 6 C-1.33 4.68 -1.66 3.36 -2 2 C-1.34 2 -0.68 2 0 2 C0 1.34 0 0.68 0 0 Z " fill="#5E583D" transform="translate(81,89)"/>
<path d="M0 0 C2.97 0.495 2.97 0.495 6 1 C5.34 3.97 4.68 6.94 4 10 C3.67 10 3.34 10 3 10 C2.51171875 7.98177083 2.0234375 5.96354167 1.53515625 3.9453125 C1.05153008 1.9414343 1.05153008 1.9414343 0 0 Z " fill="#523B2F" transform="translate(82,48)"/>
<path d="M0 0 C0.99 0 1.98 0 3 0 C2.67 1.98 2.34 3.96 2 6 C2.66 6 3.32 6 4 6 C3.67 7.32 3.34 8.64 3 10 C3 9.01 3 8.02 3 7 C2.34 7 1.68 7 1 7 C0.67 4.69 0.34 2.38 0 0 Z " fill="#322015" transform="translate(85,38)"/>
<path d="M0 0 C1.98 0.99 3.96 1.98 6 3 C2.77208445 5.1519437 1.71599191 5.20086443 -2 5 C-2 4.34 -2 3.68 -2 3 C-1.34 2.67 -0.68 2.34 0 2 C0 1.34 0 0.68 0 0 Z " fill="#64553B" transform="translate(14,71)"/>
<path d="M0 0 C5.75 0.875 5.75 0.875 8 2 C8 2.66 8 3.32 8 4 C4.31245243 3.50168276 2.39509338 2.89932357 0 0 Z " fill="#625C40" transform="translate(21,88)"/>
<path d="M0 0 C0.99 0.66 1.98 1.32 3 2 C2.34 2 1.68 2 1 2 C0.67 2.66 0.34 3.32 0 4 C0 3.34 0 2.68 0 2 C-0.66 2 -1.32 2 -2 2 C-1.67 4.31 -1.34 6.62 -1 9 C-3.1519437 5.77208445 -3.20086443 4.71599191 -3 1 C-2.01 0.67 -1.02 0.34 0 0 Z " fill="#725C54" transform="translate(43,69)"/>
</svg>
