<?xml version="1.0" encoding="UTF-8"?>
<svg version="1.1" xmlns="http://www.w3.org/2000/svg" width="124" height="132">
<path d="M0 0 C40.92 0 81.84 0 124 0 C124 43.56 124 87.12 124 132 C83.08 132 42.16 132 0 132 C0 88.44 0 44.88 0 0 Z " fill="#D6D9E4" transform="translate(0,0)"/>
<path d="M0 0 C40.92 0 81.84 0 124 0 C124 43.56 124 87.12 124 132 C83.08 132 42.16 132 0 132 C0 88.44 0 44.88 0 0 Z M32 19 C30.67624147 19.36952977 29.3439467 19.71243062 28 20 C28 20.66 28 21.32 28 22 C27.4225 22.103125 26.845 22.20625 26.25 22.3125 C23.64338842 23.10896465 22.0264689 24.19065277 20 26 C20 26.66 20 27.32 20 28 C19.01 28.33 18.02 28.66 17 29 C17 29.66 17 30.32 17 31 C16.01 31.33 15.02 31.66 14 32 C9.29246169 36.95807957 6.93256168 43.29470708 4.6875 49.625 C4.43315186 50.34107422 4.17880371 51.05714844 3.91674805 51.79492188 C-1.2369861 67.01588559 0.82813294 81.23113899 6 96 C6.66666667 98 7.33333333 100 8 102 C8.66 102 9.32 102 10 102 C10.20625 102.66 10.4125 103.32 10.625 104 C13.77616041 110.87525907 18.80370699 116.66409521 25 121 C26.485 121.495 26.485 121.495 28 122 C28.495 122.99 28.495 122.99 29 124 C36.85060253 128.52550023 43.98143661 130.94136175 53 131 C54.24910156 131.03738281 55.49820313 131.07476562 56.78515625 131.11328125 C75.7361112 131.59771597 75.7361112 131.59771597 92 123.125 C92.66 122.42375 93.32 121.7225 94 121 C96.10482188 119.41730448 98.23767317 117.88368277 100.390625 116.3671875 C100.92171875 115.91601562 101.4528125 115.46484375 102 115 C102 114.34 102 113.68 102 113 C102.99 112.67 103.98 112.34 105 112 C107.97202012 108.37039924 107.97202012 108.37039924 109 104 C109.66 104 110.32 104 111 104 C113.35910353 99.7362719 113.35910353 99.7362719 114 95 C114.66 95 115.32 95 116 95 C121.02266938 75.02143562 121.44091737 57.99203999 112 39 C109.91109989 36.02489984 107.62022028 33.50629765 105 31 C103.20577144 29.20577144 101.43447409 27.40390512 99.6875 25.5625 C94.32534247 20.44974515 87.62867602 16 80 16 C80 15.34 80 14.68 80 14 C66.59162122 7.29581061 44.31751205 12.15693775 32 19 Z " fill="#FCFCFD" transform="translate(0,0)"/>
<path d="M0 0 C4.29 0 8.58 0 13 0 C13.28571429 8.57142857 13.28571429 8.57142857 11 12 C10.34 12 9.68 12 9 12 C8.979375 12.804375 8.95875 13.60875 8.9375 14.4375 C7.28755238 20.70730097 3.09798884 25.34839177 -1.9375 29.3125 C-12.52337456 35.14553292 -21.63297231 37.84106255 -33.94140625 35.421875 C-43.86941006 32.31496058 -51.81502016 24.9116841 -57 16 C-58.87795897 11.00204572 -59.22070258 6.29686195 -59 1 C-55.37 1 -51.74 1 -48 1 C-47.608125 2.546875 -47.21625 4.09375 -46.8125 5.6875 C-45.43819233 10.34304944 -43.70645774 12.78123406 -40 16 C-39.67 16.99 -39.34 17.98 -39 19 C-32.37556911 22.12414012 -24.92640668 24.60215313 -17.75390625 22.26953125 C-12.86180049 20.30144272 -9.46616907 18.06036948 -6 14 C-5.278125 13.2575 -4.55625 12.515 -3.8125 11.75 C-1.30205953 7.94105584 -0.8023182 4.47960993 0 0 Z " fill="#FBFCFC" transform="translate(84,71)"/>
<path d="M0 0 C0.99 0 1.98 0 3 0 C3 1.32 3 2.64 3 4 C3.721875 4.226875 4.44375 4.45375 5.1875 4.6875 C11.04096953 7.41911912 14.90469749 13.14278074 19 18 C14.71 18 10.42 18 6 18 C6 23.94 6 29.88 6 36 C3.03 36 0.06 36 -3 36 C-3 30.06 -3 24.12 -3 18 C-7.29 18 -11.58 18 -16 18 C-14.19498907 14.38997813 -13.45834887 13.28788311 -10.5 10.9375 C-8.06335088 8.99127814 -6.77737879 7.66606818 -5 5 C-4.34 5 -3.68 5 -3 5 C-2.67 4.01 -2.34 3.02 -2 2 C-1.34 2 -0.68 2 0 2 C0 1.34 0 0.68 0 0 Z " fill="#FDFDFD" transform="translate(59,32)"/>
<path d="M0 0 C0.99 0 1.98 0 3 0 C3 0.66 3 1.32 3 2 C1.56640625 3.41015625 1.56640625 3.41015625 -0.4375 5.0625 C-4.58961788 8.57070655 -8.35807233 12.35450405 -12.1171875 16.27734375 C-14 18 -14 18 -16 18 C-14.63696103 14.84456479 -13.1817387 13.06811867 -10.5 10.9375 C-8.06335088 8.99127814 -6.77737879 7.66606818 -5 5 C-4.34 5 -3.68 5 -3 5 C-2.67 4.01 -2.34 3.02 -2 2 C-1.34 2 -0.68 2 0 2 C0 1.34 0 0.68 0 0 Z " fill="#EFF0F4" transform="translate(59,32)"/>
</svg>
