<?xml version="1.0" encoding="UTF-8"?>
<svg version="1.1" xmlns="http://www.w3.org/2000/svg" width="102" height="106">
<path d="M0 0 C33.66 0 67.32 0 102 0 C102 34.98 102 69.96 102 106 C68.34 106 34.68 106 0 106 C0 71.02 0 36.04 0 0 Z " fill="#282D41" transform="translate(0,0)"/>
<path d="M0 0 C33.66 0 67.32 0 102 0 C102 34.98 102 69.96 102 106 C68.34 106 34.68 106 0 106 C0 71.02 0 36.04 0 0 Z M32 8 C32 8.66 32 9.32 32 10 C31.43152344 10.07476563 30.86304687 10.14953125 30.27734375 10.2265625 C24.22168686 11.25774281 20.02140283 13.2415555 16 18 C16 18.66 16 19.32 16 20 C15.01 20.33 14.02 20.66 13 21 C11.68664418 23.26107806 10.54031871 25.45270513 9.4375 27.8125 C9.13392578 28.44220703 8.83035156 29.07191406 8.51757812 29.72070312 C7.67158071 31.47720756 6.83547114 33.23846447 6 35 C5.41798828 36.10601562 5.41798828 36.10601562 4.82421875 37.234375 C0.95870742 45.51499643 2.02992821 58.71506291 5 67 C5.54898091 68.81029804 6.09026334 70.62294338 6.625 72.4375 C7.08287786 73.95847052 7.54105193 75.47935206 8 77 C8.66 77 9.32 77 10 77 C10.0928125 78.0828125 10.0928125 78.0828125 10.1875 79.1875 C11.26438217 82.91516905 13.14774211 84.40703828 16 87 C17.2375 88.36125 17.2375 88.36125 18.5 89.75 C21.13205177 92.11884659 22.52815843 92.70241358 26 93 C26 93.66 26 94.32 26 95 C34.36344215 101.21776504 48.22545079 100.95500518 58.2578125 99.72265625 C64.85011082 98.48217001 70.89605821 95.70597758 77 93 C77 92.34 77 91.68 77 91 C77.721875 90.773125 78.44375 90.54625 79.1875 90.3125 C82.60861306 88.71598057 84.46393673 86.78966959 87 84 C87.9075 83.05125 88.815 82.1025 89.75 81.125 C92.2774348 77.61467388 92.74386318 75.26894705 93 71 C93.66 71 94.32 71 95 71 C98.06307589 59.69579134 98.77829489 49.55891675 97 38 C96.34 38 95.68 38 95 38 C95.0928125 36.88625 95.0928125 36.88625 95.1875 35.75 C94.95896306 32.39812495 94.07671722 31.59589653 92 29 C91.35796949 27.67478319 90.7345321 26.34047506 90.125 25 C88.28906639 21.27312353 86.51100337 19.34066892 83 17 C82.2575 16.48179688 81.515 15.96359375 80.75 15.4296875 C76.71700423 12.25647949 76.71700423 12.25647949 72 11 C72 10.34 72 9.68 72 9 C70.68 9 69.36 9 68 9 C68 8.34 68 7.68 68 7 C55.99945307 3.10834977 43.94662243 4.5633004 32 8 Z " fill="#080D24" transform="translate(0,0)"/>
<path d="M0 0 C3.25696479 0.41755959 4.63443291 0.63443291 7 3 C8.42636551 8.56282548 8.09127675 14.30027409 8 20 C10.54191483 18.02295513 12.91096757 16.09426963 15.125 13.75 C17 12 17 12 20 12 C19.67 13.65 19.34 15.3 19 17 C18.01 17.33 17.02 17.66 16 18 C15.505 19.485 15.505 19.485 15 21 C13.4375 22.6875 13.4375 22.6875 12 24 C12.71285156 23.97679688 13.42570312 23.95359375 14.16015625 23.9296875 C19.86503153 23.82219321 24.64911486 23.95072484 30 26 C30.66 26.66 31.32 27.32 32 28 C31.625 30.625 31.625 30.625 31 33 C28.03 33.495 28.03 33.495 25 34 C25 34.66 25 35.32 25 36 C19.06 36.495 19.06 36.495 13 37 C15.21928194 39.90802461 16.92969143 41.95312762 20 44 C20 45.32 20 46.64 20 48 C16.43217129 47.44397475 15.07770886 46.31393174 12.875 43.5 C10.80112319 40.8119616 10.80112319 40.8119616 8 39 C8.01160156 39.81984375 8.02320313 40.6396875 8.03515625 41.484375 C8.04417969 42.56203125 8.05320313 43.6396875 8.0625 44.75 C8.07410156 45.81734375 8.08570313 46.8846875 8.09765625 47.984375 C8.01510087 50.53368501 7.74617558 52.57933591 7 55 C6.34 55 5.68 55 5 55 C4.67 56.32 4.34 57.64 4 59 C2.35 58.67 0.7 58.34 -1 58 C-3.30844801 51.65176798 -3.19818283 45.70518586 -3 39 C-4.98491642 39.26676204 -4.98491642 39.26676204 -7 40 C-7.33 40.99 -7.66 41.98 -8 43 C-8.66 43 -9.32 43 -10 43 C-10.66 44.32 -11.32 45.64 -12 47 C-12.99 47 -13.98 47 -15 47 C-13.6062718 42.56541027 -11.39417765 40.12621626 -8 37 C-9.33804688 36.90912109 -9.33804688 36.90912109 -10.703125 36.81640625 C-11.87359375 36.73261719 -13.0440625 36.64882813 -14.25 36.5625 C-15.41015625 36.48128906 -16.5703125 36.40007813 -17.765625 36.31640625 C-20.30977376 36.06752213 -22.55953248 35.71885058 -25 35 C-25 34.34 -25 33.68 -25 33 C-25.66 33 -26.32 33 -27 33 C-27.33 31.35 -27.66 29.7 -28 28 C-20.97563746 23.59255684 -15.17367067 23.5514449 -7 24 C-7.763125 23.2575 -8.52625 22.515 -9.3125 21.75 C-13.55421687 17.40963855 -13.55421687 17.40963855 -15 15 C-14.67 14.01 -14.34 13.02 -14 12 C-10.45224921 13.97097266 -7.81311434 16.08988172 -5 19 C-4.34 19.33 -3.68 19.66 -3 20 C-3.02320312 19.29875 -3.04640625 18.5975 -3.0703125 17.875 C-3.1849067 11.85061904 -2.81198934 6.75573084 -1 1 C-0.67 0.67 -0.34 0.34 0 0 Z " fill="#FBFBFB" transform="translate(48,23)"/>
<path d="M0 0 C0.99 0.33 1.98 0.66 3 1 C3 1.66 3 2.32 3 3 C9.27 3 15.54 3 22 3 C22 3.99 22 4.98 22 6 C22.99 6 23.98 6 25 6 C25 10.62 25 15.24 25 20 C24.67 20 24.34 20 24 20 C24 16.04 24 12.08 24 8 C22.68 8.33 21.36 8.66 20 9 C19.67 9.99 19.34 10.98 19 12 C18.34 12 17.68 12 17 12 C16.34 13.32 15.68 14.64 15 16 C14.01 16 13.02 16 12 16 C13.3937282 11.56541027 15.60582235 9.12621626 19 6 C18.10796875 5.93941406 17.2159375 5.87882812 16.296875 5.81640625 C15.12640625 5.73261719 13.9559375 5.64882813 12.75 5.5625 C11.58984375 5.48128906 10.4296875 5.40007813 9.234375 5.31640625 C6.69022624 5.06752213 4.44046752 4.71885058 2 4 C2 3.34 2 2.68 2 2 C1.34 2 0.68 2 0 2 C0 1.34 0 0.68 0 0 Z " fill="#C0C1C7" transform="translate(21,54)"/>
<path d="M0 0 C4.95 0 9.9 0 15 0 C15 0.66 15 1.32 15 2 C9.06 2.495 9.06 2.495 3 3 C5.21928194 5.90802461 6.92969143 7.95312762 10 10 C10 11.32 10 12.64 10 14 C6.43217129 13.44397475 5.07770886 12.31393174 2.875 9.5 C0.80112319 6.8119616 0.80112319 6.8119616 -2 5 C-2 8.96 -2 12.92 -2 17 C-2.33 17 -2.66 17 -3 17 C-3 12.38 -3 7.76 -3 3 C-2.01 3 -1.02 3 0 3 C0 2.01 0 1.02 0 0 Z " fill="#CBCCD1" transform="translate(58,57)"/>
<path d="M0 0 C0.33 0 0.66 0 1 0 C1 4.62 1 9.24 1 14 C0.01 14 -0.98 14 -2 14 C-2 14.66 -2 15.32 -2 16 C-2.95261719 16.06058594 -3.90523437 16.12117188 -4.88671875 16.18359375 C-6.14097656 16.26738281 -7.39523438 16.35117187 -8.6875 16.4375 C-9.92886719 16.51871094 -11.17023437 16.59992187 -12.44921875 16.68359375 C-15.38180337 16.94491317 -18.13441617 17.34798379 -21 18 C-20 16 -20 16 -17 15 C-14.77181559 14.93062938 -12.54165476 14.91542916 -10.3125 14.9375 C-8.54326172 14.95103516 -8.54326172 14.95103516 -6.73828125 14.96484375 C-5.83464844 14.97644531 -4.93101563 14.98804688 -4 15 C-4.763125 14.2575 -5.52625 13.515 -6.3125 12.75 C-10.55421687 8.40963855 -10.55421687 8.40963855 -12 6 C-11.67 5.01 -11.34 4.02 -11 3 C-7.45224921 4.97097266 -4.81311434 7.08988172 -2 10 C-1.34 10.33 -0.68 10.66 0 11 C0 7.37 0 3.74 0 0 Z " fill="#CDCED2" transform="translate(45,32)"/>
<path d="M0 0 C0.66 5.94 1.32 11.88 2 18 C1.34 18 0.68 18 0 18 C-0.66 13.38 -1.32 8.76 -2 4 C-3.65 4.66 -5.3 5.32 -7 6 C-7 5.34 -7 4.68 -7 4 C-2.52941176 0 -2.52941176 0 0 0 Z " fill="#686B7A" transform="translate(45,62)"/>
<path d="M0 0 C0.33 0.66 0.66 1.32 1 2 C1.71285156 1.97679687 2.42570312 1.95359375 3.16015625 1.9296875 C8.88360394 1.82184326 13.59838814 2.07942689 19 4 C16.64341603 5.17829199 15.47426764 5.04414372 12.8671875 4.87890625 C12.06152344 4.83056641 11.25585938 4.78222656 10.42578125 4.73242188 C9.58402344 4.67634766 8.74226563 4.62027344 7.875 4.5625 C6.60076172 4.48418945 6.60076172 4.48418945 5.30078125 4.40429688 C3.20020876 4.27448622 1.10005809 4.1378826 -1 4 C-0.67 2.68 -0.34 1.36 0 0 Z " fill="#C4C5CA" transform="translate(59,45)"/>
<path d="M0 0 C-0.33 1.65 -0.66 3.3 -1 5 C-1.99 5.33 -2.98 5.66 -4 6 C-4.33 6.99 -4.66 7.98 -5 9 C-5.33 8.34 -5.66 7.68 -6 7 C-6.99 7 -7.98 7 -9 7 C-9 6.34 -9 5.68 -9 5 C-3.64285714 0 -3.64285714 0 0 0 Z " fill="#A8AAB2" transform="translate(68,35)"/>
<path d="M0 0 C0.99 0.495 0.99 0.495 2 1 C3.45866945 6.5429439 3.09106925 12.31323109 3 18 C3.66 18.33 4.32 18.66 5 19 C3.68 19.33 2.36 19.66 1 20 C0.67 13.4 0.34 6.8 0 0 Z " fill="#C8CACF" transform="translate(53,25)"/>
<path d="M0 0 C4.95 0 9.9 0 15 0 C15 0.66 15 1.32 15 2 C10.38 2.33 5.76 2.66 1 3 C0.67 2.01 0.34 1.02 0 0 Z " fill="#A8AAB3" transform="translate(58,57)"/>
<path d="M0 0 C0.66 0.33 1.32 0.66 2 1 C-1.63 4.63 -5.26 8.26 -9 12 C-9.33 11.01 -9.66 10.02 -10 9 C-9.01 8.67 -8.02 8.34 -7 8 C-7 7.34 -7 6.68 -7 6 C-5.46875 4.4921875 -5.46875 4.4921875 -3.5 2.875 C-2.8503125 2.33617187 -2.200625 1.79734375 -1.53125 1.2421875 C-0.77328125 0.62730469 -0.77328125 0.62730469 0 0 Z " fill="#1C2137" transform="translate(23,12)"/>
<path d="M0 0 C0.99 0.33 1.98 0.66 3 1 C2.01 2.485 2.01 2.485 1 4 C0.34 4 -0.32 4 -1 4 C-1.33 4.99 -1.66 5.98 -2 7 C-2.33 6.34 -2.66 5.68 -3 5 C-3.66 4.67 -4.32 4.34 -5 4 C-4.01 3.67 -3.02 3.34 -2 3 C-2 2.34 -2 1.68 -2 1 C-1.34 0.67 -0.68 0.34 0 0 Z " fill="#E9E9EB" transform="translate(60,41)"/>
<path d="M0 0 C0.99 0 1.98 0 3 0 C2.67 1.32 2.34 2.64 2 4 C0.68 4.33 -0.64 4.66 -2 5 C-1.34 3.35 -0.68 1.7 0 0 Z " fill="#D5D6D9" transform="translate(65,35)"/>
<path d="M0 0 C1.65 0.33 3.3 0.66 5 1 C2.61426621 2.89213369 0.92824652 4.02391783 -2 5 C-1.34 3.35 -0.68 1.7 0 0 Z " fill="#C9CAD0" transform="translate(48,23)"/>
</svg>
