<?xml version="1.0" encoding="UTF-8"?>
<svg version="1.1" xmlns="http://www.w3.org/2000/svg" width="85" height="75">
<path d="M0 0 C28.05 0 56.1 0 85 0 C85 24.75 85 49.5 85 75 C56.95 75 28.9 75 0 75 C0 50.25 0 25.5 0 0 Z " fill="#090E23" transform="translate(0,0)"/>
<path d="M0 0 C1.14958946 -0.01142029 1.14958946 -0.01142029 2.32240295 -0.02307129 C3.93161792 -0.0338011 5.54090212 -0.03675463 7.15014648 -0.03222656 C9.58892698 -0.03125348 12.02456227 -0.07296593 14.46289062 -0.1171875 C25.12278827 -0.19888038 31.85664 1.13044023 40.03515625 8.34375 C45.07371614 13.87216988 46.14565881 19.51795249 45.96484375 26.80078125 C45.54031687 30.51811281 44.41388736 33.18050417 42.66015625 36.46875 C42.00015625 36.46875 41.34015625 36.46875 40.66015625 36.46875 C40.66015625 37.45875 40.66015625 38.44875 40.66015625 39.46875 C39.34765625 40.96875 39.34765625 40.96875 37.66015625 42.46875 C37.24765625 42.96375 36.83515625 43.45875 36.41015625 43.96875 C31.40707815 48.25710266 25.78665175 48.92819953 19.41796875 48.90234375 C18.26625687 48.91020653 18.26625687 48.91020653 17.09127808 48.91822815 C15.4760661 48.92461583 13.8608074 48.92335378 12.24560547 48.91479492 C9.79829449 48.90629563 7.35333047 48.93507091 4.90625 48.96679688 C-4.84695173 49.01041156 -12.20879658 48.45956447 -20.15234375 42.28125 C-26.23634172 34.45896689 -27.13949575 27.26120971 -26.33984375 17.46875 C-26.04752214 16.12582894 -25.73213146 14.7859437 -25.33984375 13.46875 C-24.67984375 13.46875 -24.01984375 13.46875 -23.33984375 13.46875 C-23.11296875 12.746875 -22.88609375 12.025 -22.65234375 11.28125 C-20.46319811 6.59022362 -17.48559593 3.7189756 -12.68139648 1.84960938 C-8.4034817 0.32319553 -4.51350263 0.00126626 0 0 Z " fill="#AAEE00" transform="translate(32.33984375,13.53125)"/>
<path d="M0 0 C5.28 0 10.56 0 16 0 C16 5.28 16 10.56 16 16 C12 14 12 14 10 12 C9.01 12 8.02 12 7 12 C6.360625 12.804375 5.72125 13.60875 5.0625 14.4375 C3 17 3 17 0.75 17.8125 C0.1725 17.874375 -0.405 17.93625 -1 18 C-1.33 17.01 -1.66 16.02 -2 15 C-1.34 14.01 -0.68 13.02 0 12 C0.66 12 1.32 12 2 12 C2 11.34 2 10.68 2 10 C2.66 9.67 3.32 9.34 4 9 C4 7.35 4 5.7 4 4 C2.68 3.34 1.36 2.68 0 2 C0 1.34 0 0.68 0 0 Z " fill="#131D20" transform="translate(35,29)"/>
<path d="M0 0 C0.66 0 1.32 0 2 0 C2 1.65 2 3.3 2 5 C3.32 5.33 4.64 5.66 6 6 C5.01 6.33 4.02 6.66 3 7 C2.360625 7.825 1.72125 8.65 1.0625 9.5 C-1.04586025 12.05558818 -1.7991535 12.65705216 -5 13 C-5.33 12.01 -5.66 11.02 -6 10 C-5.34 9.01 -4.68 8.02 -4 7 C-3.34 7 -2.68 7 -2 7 C-2 6.34 -2 5.68 -2 5 C-1.34 4.67 -0.68 4.34 0 4 C0 2.68 0 1.36 0 0 Z " fill="#324819" transform="translate(39,34)"/>
<path d="M0 0 C5.94 0 11.88 0 18 0 C18 0.66 18 1.32 18 2 C12.72 2 7.44 2 2 2 C2 2.66 2 3.32 2 4 C1.34 4 0.68 4 0 4 C0 2.68 0 1.36 0 0 Z " fill="#93CF05" transform="translate(33,27)"/>
<path d="M0 0 C0.66 0 1.32 0 2 0 C2 1.65 2 3.3 2 5 C3.32 5.33 4.64 5.66 6 6 C5.01 6.33 4.02 6.66 3 7 C2.67 7.66 2.34 8.32 2 9 C1.34 8.67 0.68 8.34 0 8 C0.33 7.34 0.66 6.68 1 6 C0.01 6.33 -0.98 6.66 -2 7 C-2 6.34 -2 5.68 -2 5 C-1.34 4.67 -0.68 4.34 0 4 C0 2.68 0 1.36 0 0 Z " fill="#415C16" transform="translate(39,34)"/>
</svg>
