<?xml version="1.0" encoding="UTF-8"?>
<svg version="1.1" xmlns="http://www.w3.org/2000/svg" width="91" height="79">
<path d="M0 0 C30.03 0 60.06 0 91 0 C91 26.07 91 52.14 91 79 C60.97 79 30.94 79 0 79 C0 52.93 0 26.86 0 0 Z " fill="#0A0E26" transform="translate(0,0)"/>
<path d="M0 0 C-0.38234908 5.81434292 -0.79466064 11.03689389 -4 16 C-6.79898008 16.92377406 -9.00107322 16.95083727 -12 17 C-12 17.66 -12 18.32 -12 19 C-15.3 19.33 -18.6 19.66 -22 20 C-22 20.66 -22 21.32 -22 22 C-25.3 22.33 -28.6 22.66 -32 23 C-33.21973185 26.33393371 -34.01995999 29.19959985 -34.375 32.75 C-35 36 -35 36 -36.6875 37.4375 C-39.519818 38.12644222 -42.09628021 38.13198726 -45 38 C-45 38.66 -45 39.32 -45 40 C-47.60311992 40.67099984 -50.20735398 41.33695338 -52.8125 42 C-53.91948242 42.28617188 -53.91948242 42.28617188 -55.04882812 42.578125 C-58.10535341 43.35262914 -60.83373478 44 -64 44 C-63.77177997 41.55864621 -63.51853605 39.12446469 -63.25 36.6875 C-63.188125 35.99720703 -63.12625 35.30691406 -63.0625 34.59570312 C-62.7002683 31.47145474 -62.38929023 29.4309999 -60.25 27.0625 C-57.65743107 25.83823134 -55.60605804 25.50039856 -52.75 25.3125 C-51.85796875 25.24675781 -50.9659375 25.18101563 -50.046875 25.11328125 C-49.37140625 25.07589844 -48.6959375 25.03851563 -48 25 C-48 24.34 -48 23.68 -48 23 C-42.34853777 21.82877141 -36.72398793 20.74660712 -31 20 C-30.91363281 19.16855469 -30.82726563 18.33710937 -30.73828125 17.48046875 C-30.59777344 16.39378906 -30.45726562 15.30710937 -30.3125 14.1875 C-30.12107422 12.56908203 -30.12107422 12.56908203 -29.92578125 10.91796875 C-29 8 -29 8 -26.98828125 6.24609375 C-23.0284119 4.59485411 -19.07185864 3.71706634 -14.875 2.875 C-13.26796919 2.54030837 -11.66118711 2.20441965 -10.0546875 1.8671875 C-8.99483643 1.65231689 -8.99483643 1.65231689 -7.91357422 1.43310547 C-1.58173619 0 -1.58173619 0 0 0 Z " fill="#F3F3F4" transform="translate(77,31)"/>
<path d="M0 0 C0 1.65 0 3.3 0 5 C-0.66 5 -1.32 5 -2 5 C-1.95875 6.258125 -1.9175 7.51625 -1.875 8.8125 C-1.7609626 12.29064073 -1.94074319 12.91111478 -4 16 C-11.80031514 19.3622048 -19.58021908 21.09788062 -28 22 C-28 22.66 -28 23.32 -28 24 C-29.65 24.33 -31.3 24.66 -33 25 C-33.02126953 26.03060547 -33.02126953 26.03060547 -33.04296875 27.08203125 C-33.43292972 34.44913173 -33.43292972 34.44913173 -36.1875 37.125 C-39.28040626 38.0872375 -41.77910288 38.22471375 -45 38 C-45 38.66 -45 39.32 -45 40 C-47.22667765 40.67493341 -49.45645977 41.33963044 -51.6875 42 C-52.92886719 42.37125 -54.17023437 42.7425 -55.44921875 43.125 C-58.5010019 43.87703457 -60.88898362 44.19034899 -64 44 C-63.67 41.36 -63.34 38.72 -63 36 C-62.34 36 -61.68 36 -61 36 C-61.061875 35.071875 -61.12375 34.14375 -61.1875 33.1875 C-61 30 -61 30 -59.75976562 28.38745117 C-57.73031165 26.78736974 -56.15458237 26.24923482 -53.65625 25.61328125 C-52.82222656 25.39736328 -51.98820312 25.18144531 -51.12890625 24.95898438 C-50.26136719 24.74564453 -49.39382812 24.53230469 -48.5 24.3125 C-47.63246094 24.08755859 -46.76492187 23.86261719 -45.87109375 23.63085938 C-39.45671068 22 -39.45671068 22 -36 22 C-36 21.34 -36 20.68 -36 20 C-34.68 19.67 -33.36 19.34 -32 19 C-31.76216797 17.86111328 -31.76216797 17.86111328 -31.51953125 16.69921875 C-31.28621094 15.70535156 -31.05289063 14.71148437 -30.8125 13.6875 C-30.59207031 12.70136719 -30.37164062 11.71523437 -30.14453125 10.69921875 C-28.63077602 7.12923629 -27.56519729 6.53381087 -24 5 C-20.48992513 3.9525409 -16.94742843 3.11799987 -13.375 2.3125 C-12.42109375 2.08755859 -11.4671875 1.86261719 -10.484375 1.63085938 C-3.44540748 0 -3.44540748 0 0 0 Z " fill="#F0F1F2" transform="translate(77,4)"/>
<path d="M0 0 C-4.625 3 -4.625 3 -8 3 C-9.485 9.435 -9.485 9.435 -11 16 C-7.04 15.34 -3.08 14.68 1 14 C0.67 14.66 0.34 15.32 0 16 C-2.94140625 16.6328125 -2.94140625 16.6328125 -6.5625 17.125 C-7.76003906 17.29257813 -8.95757812 17.46015625 -10.19140625 17.6328125 C-11.11824219 17.75398438 -12.04507812 17.87515625 -13 18 C-12.77177997 15.55864621 -12.51853605 13.12446469 -12.25 10.6875 C-12.188125 9.99720703 -12.12625 9.30691406 -12.0625 8.59570312 C-11.68717702 5.35854243 -11.41803361 3.42229926 -9.0859375 1.06640625 C-5.93143326 -0.54628974 -3.28211866 -1.64105933 0 0 Z " fill="#9799A3" transform="translate(26,57)"/>
<path d="M0 0 C1.98 0 3.96 0 6 0 C5.21625 0.5775 4.4325 1.155 3.625 1.75 C-0.03558478 4.8876441 -0.74404578 7.0561688 -2 11.6875 C-2.33 12.780625 -2.66 13.87375 -3 15 C-6.21451269 16.60725635 -9.43612536 16.05748185 -13 16 C-13 15.67 -13 15.34 -13 15 C-10.03 14.34 -7.06 13.68 -4 13 C-3.71125 11.5975 -3.4225 10.195 -3.125 8.75 C-2.46276373 5.53342384 -1.57554035 2.88628401 0 0 Z " fill="#565969" transform="translate(45,54)"/>
<path d="M0 0 C0.33 0 0.66 0 1 0 C1 1.98 1 3.96 1 6 C1.80824219 5.7834375 2.61648437 5.566875 3.44921875 5.34375 C5.05216797 4.92609375 5.05216797 4.92609375 6.6875 4.5 C8.27111328 4.08234375 8.27111328 4.08234375 9.88671875 3.65625 C12.71142672 3.0608285 15.12836708 2.87213508 18 3 C15.07382565 4.9507829 12.97955419 5.71513462 9.625 6.625 C8.68914063 6.88539062 7.75328125 7.14578125 6.7890625 7.4140625 C4.09876365 7.97925133 1.73855429 8.10954217 -1 8 C-0.67 5.36 -0.34 2.72 0 0 Z " fill="#B1B2BA" transform="translate(14,40)"/>
<path d="M0 0 C0.33 0 0.66 0 1 0 C1 1.65 1 3.3 1 5 C4.96 4.34 8.92 3.68 13 3 C12.67 3.66 12.34 4.32 12 5 C9.05859375 5.6328125 9.05859375 5.6328125 5.4375 6.125 C4.23996094 6.29257813 3.04242188 6.46015625 1.80859375 6.6328125 C0.88175781 6.75398438 -0.04507812 6.87515625 -1 7 C-0.67 4.69 -0.34 2.38 0 0 Z " fill="#B5B6BD" transform="translate(14,68)"/>
<path d="M0 0 C0.66 0.33 1.32 0.66 2 1 C1.67 2.98 1.34 4.96 1 7 C0.34 7 -0.32 7 -1 7 C-1 8.65 -1 10.3 -1 12 C-1.33 12 -1.66 12 -2 12 C-2 9.36 -2 6.72 -2 4 C-1.34 4 -0.68 4 0 4 C0 2.68 0 1.36 0 0 Z " fill="#4F5263" transform="translate(15,33)"/>
<path d="M0 0 C-0.33 2.97 -0.66 5.94 -1 9 C-1.33 9 -1.66 9 -2 9 C-2 6.69 -2 4.38 -2 2 C-3.32 1.67 -4.64 1.34 -6 1 C-3 0 -3 0 0 0 Z " fill="#C9C9CF" transform="translate(77,31)"/>
</svg>
