<?xml version="1.0" encoding="UTF-8"?>
<svg version="1.1" xmlns="http://www.w3.org/2000/svg" width="78" height="84">
<path d="M0 0 C25.74 0 51.48 0 78 0 C78 27.72 78 55.44 78 84 C52.26 84 26.52 84 0 84 C0 56.28 0 28.56 0 0 Z " fill="#060B24" transform="translate(0,0)"/>
<path d="M0 0 C16.5 0 33 0 50 0 C50 8.25 50 16.5 50 25 C42.08 25.33 34.16 25.66 26 26 C28.206875 28.2275 30.41375 30.455 32.6875 32.75 C33.71556763 33.79172363 33.71556763 33.79172363 34.7644043 34.85449219 C38.02946515 38.13422003 41.31587856 41.18351586 45 44 C46.8125 45.625 46.8125 45.625 48 47 C48 47.66 48 48.32 48 49 C40.08 49 32.16 49 24 49 C24 55.93 24 62.86 24 70 C14.34924419 67.58731105 5.03253749 57.29954485 0 49 C-2.26082204 40.74040016 -1.23370439 32.36177422 0 24 C7.26 23.67 14.52 23.34 22 23 C19.1906144 20.16767023 16.37977459 17.33691341 13.56494141 14.51000977 C12.60765619 13.54769305 11.65127006 12.58448108 10.69580078 11.62036133 C9.32300212 10.23544555 7.94670528 8.85400009 6.5703125 7.47265625 C5.32918701 6.22367554 5.32918701 6.22367554 4.06298828 4.94946289 C2.15224807 2.9555946 2.15224807 2.9555946 0 2 C0 1.34 0 0.68 0 0 Z " fill="#019EF9" transform="translate(14,14)"/>
<path d="M0 0 C14.85 0 29.7 0 45 0 C45 7.59 45 15.18 45 23 C41.16431831 23.1899748 37.33813221 23.32815786 33.5 23.4375 C32.42234375 23.49615234 31.3446875 23.55480469 30.234375 23.61523438 C24.68642824 23.73363568 20.95548709 23.62005258 16.65625 19.89453125 C15.41532399 18.61753558 14.19593306 17.31922682 13 16 C11.79785116 14.85285877 10.58966769 13.71200209 9.375 12.578125 C8.24746516 11.47132643 7.12243536 10.36196976 6 9.25 C5.41605469 8.68667969 4.83210938 8.12335937 4.23046875 7.54296875 C2.76043267 6.0867035 1.37264261 4.54840783 0 3 C0 2.01 0 1.02 0 0 Z " fill="#65D8FB" transform="translate(17,15)"/>
<path d="M0 0 C16.5 0 33 0 50 0 C50 8.25 50 16.5 50 25 C33.4966485 25.80286575 17.49131523 25.93937872 1 25 C1.33 32.59 1.66 40.18 2 48 C9.26 48.33 16.52 48.66 24 49 C24 55.93 24 62.86 24 70 C14.34924419 67.58731105 5.03253749 57.29954485 0 49 C-2.24401475 40.80180325 -1.3323407 32.30150746 0 24 C16.11374897 23.04794168 31.8769228 23.13626372 48 24 C48 16.41 48 8.82 48 1 C33.15 1 18.3 1 3 1 C2.67 1.66 2.34 2.32 2 3 C1.34 2.67 0.68 2.34 0 2 C0 1.34 0 0.68 0 0 Z " fill="#0E5FCB" transform="translate(14,14)"/>
</svg>
