<?xml version="1.0" encoding="UTF-8"?>
<svg version="1.1" xmlns="http://www.w3.org/2000/svg" width="148" height="160">
<path d="M0 0 C48.84 0 97.68 0 148 0 C148 52.8 148 105.6 148 160 C99.16 160 50.32 160 0 160 C0 107.2 0 54.4 0 0 Z " fill="#D2D5E0" transform="translate(0,0)"/>
<path d="M0 0 C48.84 0 97.68 0 148 0 C148 52.8 148 105.6 148 160 C99.16 160 50.32 160 0 160 C0 107.2 0 54.4 0 0 Z M68.5625 16.75 C67.77230469 17.30816406 66.98210937 17.86632812 66.16796875 18.44140625 C65.45253906 18.95574219 64.73710938 19.47007813 64 20 C60.13272903 22.48610277 56.23509806 24.24203477 52 26 C51.34 26.33 50.68 26.66 50 27 C50 27.66 50 28.32 50 29 C48.35 29.33 46.7 29.66 45 30 C45 30.66 45 31.32 45 32 C44.12794922 32.17402344 44.12794922 32.17402344 43.23828125 32.3515625 C40.85017489 33.04340483 39.24460494 33.99242438 37.1875 35.375 C33.56612124 37.71705056 30.00009157 39.39996337 26 41 C25.34 41.33 24.68 41.66 24 42 C24 42.66 24 43.32 24 44 C22.35 44.33 20.7 44.66 19 45 C19 45.66 19 46.32 19 47 C16.69 47.66 14.38 48.32 12 49 C12 73.09 12 97.18 12 122 C14.97 123.32 17.94 124.64 21 126 C21.66 126.99 22.32 127.98 23 129 C25.46513144 130.56597972 25.46513144 130.56597972 28.3125 132 C31.94601378 133.90350517 35.49975506 135.86065029 39 138 C44.4725686 141.31615912 49.96010427 144.56931548 55.57421875 147.640625 C59.46890549 149.82315477 63.28369825 152.1418312 67.10546875 154.44921875 C71.36682563 156.73724514 71.36682563 156.73724514 76 158 C78.75491266 156.88826141 80.89238032 155.80348266 83.375 154.25 C84.06400391 153.84112549 84.75300781 153.43225098 85.46289062 153.01098633 C87.65787434 151.69832438 89.83074049 150.35470208 92 149 C92.71704102 148.55382324 93.43408203 148.10764648 94.17285156 147.64794922 C98.30847601 145.06955619 98.30847601 145.06955619 102.41943359 142.45214844 C106.30285093 139.96912419 110.19920263 137.87338572 114.41601562 136.00317383 C116.3464433 135.01445859 116.3464433 135.01445859 117 132 C118.98 131.67 120.96 131.34 123 131 C123 130.34 123 129.68 123 129 C123.721875 128.938125 124.44375 128.87625 125.1875 128.8125 C128.86573212 127.74989961 130.42727926 125.77583027 133 123 C133.99 122.34 134.98 121.68 136 121 C136.50336147 117.97283564 136.50336147 117.97283564 136.48339844 114.35058594 C136.49829315 113.66742813 136.51318787 112.98427032 136.52853394 112.28041077 C136.57243055 110.01497393 136.59281015 107.75016766 136.609375 105.484375 C136.62663108 103.90976951 136.64390426 102.33516421 136.66119385 100.76055908 C136.69273552 97.45508893 136.71025396 94.1498378 136.72070312 90.84423828 C136.73713528 86.61519034 136.80914492 82.38905204 136.89461899 78.16091537 C136.95060723 74.90596195 136.96612019 71.6517031 136.97071075 68.3963089 C136.97977327 66.83809803 137.0038046 65.2798978 137.0432663 63.72216034 C137.5213953 55.18501366 137.5213953 55.18501366 134.10559082 47.74572754 C131.7727897 46.13711186 129.63637226 45.02700878 127 44 C126.07701111 43.6262323 125.15402222 43.2524646 124.20306396 42.86737061 C123.47605286 42.58113831 122.74904175 42.29490601 122 42 C122 41.34 122 40.68 122 40 C121.48010498 39.78811035 120.96020996 39.5762207 120.42456055 39.35791016 C112.82317912 36.13389034 105.94176148 31.89643203 98.90820312 27.6015625 C94.29499696 24.82152395 90.12563461 22.69456332 85 21 C84.505 19.515 84.505 19.515 84 18 C80.67480584 16.30096474 80.67480584 16.30096474 77 15 C76.35546875 14.74992188 75.7109375 14.49984375 75.046875 14.2421875 C72.09932501 13.89343159 70.92584434 15.02971469 68.5625 16.75 Z " fill="#FCFCFC" transform="translate(0,0)"/>
<path d="M0 0 C2.644209 1.29995655 5.22717383 2.66696845 7.78515625 4.12890625 C8.48060547 4.52400391 9.17605469 4.91910156 9.89257812 5.32617188 C11.3438224 6.15302842 12.79433973 6.98116212 14.24414062 7.81054688 C15.28538086 8.40125977 15.28538086 8.40125977 16.34765625 9.00390625 C16.97679932 9.36299072 17.60594238 9.7220752 18.25415039 10.09204102 C20.1564492 11.13946486 20.1564492 11.13946486 23 12 C23 12.66 23 13.32 23 14 C24.0828125 14.185625 24.0828125 14.185625 25.1875 14.375 C28 15 28 15 30.5 16.25 C33.03994881 17.33271209 33.03994881 17.33271209 35.3359375 15.74609375 C36.21507812 15.16988281 37.09421875 14.59367187 38 14 C39.70628792 12.93421833 41.41461019 11.87168635 43.125 10.8125 C43.97320312 10.28269531 44.82140625 9.75289062 45.6953125 9.20703125 C48 8 48 8 51 8 C51 7.34 51 6.68 51 6 C54.63 4.35 58.26 2.7 62 1 C62 1.66 62 2.32 62 3 C63.08667969 3.48919922 63.08667969 3.48919922 64.1953125 3.98828125 C69.17730047 6.24013981 74.13616006 8.50235246 79 11 C77.74184108 14.77447676 76.04514925 15.26214999 72.62890625 17.00976562 C71.92636719 17.35716797 71.22382812 17.70457031 70.5 18.0625 C65.47455442 20.17608626 65.47455442 20.17608626 62 24 C62.66 24 63.32 24 64 24 C64 24.66 64 25.32 64 26 C64.70511719 26.11214844 65.41023438 26.22429687 66.13671875 26.33984375 C69.27389512 27.06314908 71.90127906 28.19457691 74.8125 29.5625 C75.78832031 30.01753906 76.76414062 30.47257812 77.76953125 30.94140625 C78.50558594 31.29074219 79.24164063 31.64007813 80 32 C77.17134185 35.06424213 74.46301264 37.04581829 70.78125 38.98828125 C69.7718335 39.52654541 68.76241699 40.06480957 67.72241211 40.61938477 C66.12731812 41.45747681 66.12731812 41.45747681 64.5 42.3125 C62.32346804 43.47255091 60.14767746 44.63399399 57.97265625 45.796875 C56.93512207 46.35052734 55.89758789 46.90417969 54.82861328 47.47460938 C51.49070267 49.27464955 48.20721446 51.14159495 44.9375 53.0625 C44.05835938 53.578125 43.17921875 54.09375 42.2734375 54.625 C40.8033128 55.51414758 39.34854381 56.4294243 37.9140625 57.375 C36.0625 58.5625 36.0625 58.5625 33 60 C30.640625 59.25 30.640625 59.25 28 58 C27.15824219 57.60683594 26.31648438 57.21367187 25.44921875 56.80859375 C18.92016922 53.56715615 12.56896538 50.08968118 6.2409668 46.47851562 C-1.02793378 42.36118462 -8.49440427 38.66297026 -16 35 C-16 34.01 -16 33.02 -16 32 C-10.06 29.36 -4.12 26.72 2 24 C2 23.01 2 22.02 2 21 C1.13117187 20.89816406 0.26234375 20.79632813 -0.6328125 20.69140625 C-4.22084698 19.95465207 -6.70839622 18.75250461 -9.875 16.9375 C-10.84179688 16.38964844 -11.80859375 15.84179688 -12.8046875 15.27734375 C-13.52914063 14.85582031 -14.25359375 14.43429688 -15 14 C-14.83203125 12.1640625 -14.83203125 12.1640625 -14 10 C-11.63671875 8.5859375 -11.63671875 8.5859375 -8.6875 7.375 C-7.72199219 6.97023438 -6.75648437 6.56546875 -5.76171875 6.1484375 C-4.39466797 5.57996094 -4.39466797 5.57996094 -3 5 C-1.66006699 4.34669933 -0.32376684 3.68546596 1 3 C0.67 2.01 0.34 1.02 0 0 Z " fill="#E2E3E8" transform="translate(43,73)"/>
<path d="M0 0 C8.62006628 3.71405661 16.65787425 8.35652677 24.71044922 13.14819336 C31.66316833 17.28447201 38.69458554 21.25402962 45.94921875 24.83984375 C45.94921875 26.15984375 45.94921875 27.47984375 45.94921875 28.83984375 C44.9746875 29.22785156 44.00015625 29.61585937 42.99609375 30.015625 C37.67023065 32.29641381 32.83969471 35.40469228 27.9140625 38.43164062 C26.82544922 39.0880957 26.82544922 39.0880957 25.71484375 39.7578125 C25.06290039 40.15766357 24.41095703 40.55751465 23.73925781 40.96948242 C21.94921875 41.83984375 21.94921875 41.83984375 18.94921875 41.83984375 C18.94921875 42.49984375 18.94921875 43.15984375 18.94921875 43.83984375 C18.32015625 44.14277344 17.69109375 44.44570312 17.04296875 44.7578125 C12.7048249 46.88115098 8.60483288 49.01559701 4.63671875 51.77734375 C1.30957534 53.91526722 1.30957534 53.91526722 -1.73828125 53.27734375 C-2.50140625 52.80296875 -3.26453125 52.32859375 -4.05078125 51.83984375 C-4.97890625 51.46859375 -5.90703125 51.09734375 -6.86328125 50.71484375 C-7.58515625 50.42609375 -8.30703125 50.13734375 -9.05078125 49.83984375 C-9.05078125 49.17984375 -9.05078125 48.51984375 -9.05078125 47.83984375 C-9.73011719 47.76121094 -10.40945312 47.68257812 -11.109375 47.6015625 C-14.88640486 46.6234472 -17.85473563 44.71917831 -21.11328125 42.65234375 C-26.86469854 39.08957544 -32.63938514 35.92945243 -38.7578125 33.03125 C-41.05078125 31.83984375 -41.05078125 31.83984375 -43.05078125 29.83984375 C-45.62139436 29.19216582 -45.62139436 29.19216582 -48.05078125 28.83984375 C-47.79296875 26.94921875 -47.79296875 26.94921875 -47.05078125 24.83984375 C-45.30859375 23.79296875 -45.30859375 23.79296875 -43.17578125 23.08984375 C-42.47710937 22.8475 -41.7784375 22.60515625 -41.05859375 22.35546875 C-39.05078125 21.83984375 -39.05078125 21.83984375 -36.05078125 21.83984375 C-36.05078125 20.84984375 -36.05078125 19.85984375 -36.05078125 18.83984375 C-30.70072109 15.55216506 -26.36709953 13.243013 -20.05078125 12.83984375 C-20.05078125 11.84984375 -20.05078125 10.85984375 -20.05078125 9.83984375 C-17.63671875 8.12109375 -17.63671875 8.12109375 -14.42578125 6.33984375 C-13.38164063 5.75203125 -12.3375 5.16421875 -11.26171875 4.55859375 C-10.20210937 3.99140625 -9.1425 3.42421875 -8.05078125 2.83984375 C-7.01179688 2.25203125 -5.9728125 1.66421875 -4.90234375 1.05859375 C-2.05078125 -0.16015625 -2.05078125 -0.16015625 0 0 Z " fill="#F9FAFA" transform="translate(75.05078125,37.16015625)"/>
<path d="M0 0 C0.33 0.99 0.66 1.98 1 3 C2.84720176 3.62776287 2.84720176 3.62776287 5 4 C6.41453141 4.55898922 7.81146803 5.16449995 9.1875 5.8125 C9.88230469 6.12832031 10.57710937 6.44414063 11.29296875 6.76953125 C13 8 13 8 13.73828125 10.13671875 C13.82464844 10.75160156 13.91101563 11.36648437 14 12 C13.30132812 12.32613281 12.60265625 12.65226562 11.8828125 12.98828125 C10.97273438 13.42527344 10.06265625 13.86226562 9.125 14.3125 C8.22007813 14.74175781 7.31515625 15.17101562 6.3828125 15.61328125 C3.73550524 16.9199388 3.73550524 16.9199388 2 20 C-0.93073662 21.43748604 -3.74363998 21.96432782 -7 22 C-10.32532228 20.80790333 -13.06783615 18.94475141 -16 17 C-17.67984641 16.04885409 -19.36717549 15.11077532 -21.0625 14.1875 C-22.375 13.45833333 -23.6875 12.72916667 -25 12 C-24.859375 10.2265625 -24.859375 10.2265625 -24 8 C-21.453125 6.1484375 -21.453125 6.1484375 -18.25 4.375 C-17.20328125 3.78460938 -16.1565625 3.19421875 -15.078125 2.5859375 C-9.36774802 -0.35621105 -6.43968205 -1.26268276 0 0 Z " fill="#151930" transform="translate(80,54)"/>
<path d="M0 0 C0.66 0.33 1.32 0.66 2 1 C0.68 1.33 -0.64 1.66 -2 2 C-1.49396008 4.16874252 -1.00016187 5.99967627 0 8 C-2.475 7.01 -2.475 7.01 -5 6 C-4.75 4.125 -4.75 4.125 -4 2 C-2.0625 0.6875 -2.0625 0.6875 0 0 Z " fill="#5D6070" transform="translate(60,60)"/>
</svg>
