<?xml version="1.0" encoding="UTF-8"?>
<svg version="1.1" xmlns="http://www.w3.org/2000/svg" width="124" height="133">
<path d="M0 0 C40.92 0 81.84 0 124 0 C124 43.89 124 87.78 124 133 C83.08 133 42.16 133 0 133 C0 89.11 0 45.22 0 0 Z " fill="#292E42" transform="translate(0,0)"/>
<path d="M0 0 C40.92 0 81.84 0 124 0 C124 43.89 124 87.78 124 133 C83.08 133 42.16 133 0 133 C0 89.11 0 45.22 0 0 Z M41 13 C41 13.66 41 14.32 41 15 C39.989375 15.0825 38.97875 15.165 37.9375 15.25 C31.10968163 16.24313722 26.60215784 20.04383002 22 25 C20.89694806 26.06365723 19.79276157 27.12613901 18.6875 28.1875 C15.76971408 30.5926483 15.76971408 30.5926483 16 33 C15.34 33 14.68 33 14 33 C12.89324381 35.1862225 11.78955622 37.37390948 10.6875 39.5625 C10.2244043 40.47612305 10.2244043 40.47612305 9.75195312 41.40820312 C2.52739809 55.78126526 0.17804962 72.16916659 4.875 87.9375 C5.24625 88.948125 5.6175 89.95875 6 91 C6.350625 92.19625 6.70125 93.3925 7.0625 94.625 C8.98476021 99.79418678 12.46469902 103.87094225 15.84375 108.16796875 C18 111 18 111 19.51953125 113.671875 C24.50357435 121.50957867 37.31331428 126.40720597 46 129 C53.87252053 130.67962339 61.99590181 130.16187208 70 130 C70.93199219 129.98324219 71.86398438 129.96648437 72.82421875 129.94921875 C78.95031065 129.56427581 83.69719777 126.93403778 89 124 C90.20496095 123.38913511 91.4126996 122.78366655 92.625 122.1875 C93.40875 121.795625 94.1925 121.40375 95 121 C95 120.34 95 119.68 95 119 C95.89332031 118.78214844 96.78664063 118.56429687 97.70703125 118.33984375 C101.66555199 116.72920008 103.11810878 114.93902982 105.6875 111.5625 C109.91337328 106.08127231 109.91337328 106.08127231 111.76953125 104.33984375 C113.3382025 102.93492342 113.3382025 102.93492342 113 100 C113.66 100 114.32 100 115 100 C115.33 98.02 115.66 96.04 116 94 C116.66 94 117.32 94 118 94 C122.17181313 83.45872217 122.54291127 74.17328268 122 63 C121.96777344 62.07703125 121.93554688 61.1540625 121.90234375 60.203125 C121.40970428 53.07880031 119.1427085 46.03211262 114 41 C113.54625 39.88625 113.0925 38.7725 112.625 37.625 C110.84602168 33.65650991 109.23095823 31.87976711 106 29 C105.31421875 28.36964844 104.6284375 27.73929688 103.921875 27.08984375 C95.47271086 19.40225393 87.22045249 12.55731881 75.3125 11.75 C74.549375 11.8325 73.78625 11.915 73 12 C73 11.34 73 10.68 73 10 C61.84113421 9.6818486 51.77895966 9.74889547 41 13 Z " fill="#F7F7F7" transform="translate(0,0)"/>
<path d="M0 0 C4.29 0 8.58 0 13 0 C13.391875 1.85625 13.78375 3.7125 14.1875 5.625 C15.52924095 11.09517463 17.11891116 14.01401687 21 18 C21 18.66 21 19.32 21 20 C32.14486152 23.16808246 40.11347743 24.32372527 51 20 C51 19.34 51 18.68 51 18 C51.66 18 52.32 18 53 18 C53.66 16.35 54.32 14.7 55 13 C55.66 13 56.32 13 57 13 C57.73989213 10.09375703 58.41650906 7.17849225 59.0625 4.25 C59.371875 2.8475 59.68125 1.445 60 0 C64.29 0 68.58 0 73 0 C73.33266291 6.20970773 72.45029331 10.28264895 70 16 C69.01 16 68.02 16 67 16 C66.9071875 17.051875 66.9071875 17.051875 66.8125 18.125 C65.04414421 24.38225895 60.36621805 27.78026917 55 31 C54.41863281 31.36222656 53.83726563 31.72445312 53.23828125 32.09765625 C44.80001687 37.20454511 34.0351512 37.33408527 24.5 35.25 C17.76884131 32.84601475 12.54724741 28.46207825 8 23 C8 22.34 8 21.68 8 21 C7.34 21 6.68 21 6 21 C5.32332002 19.75539217 4.65905281 18.50403104 4 17.25 C3.62875 16.55390625 3.2575 15.8578125 2.875 15.140625 C2 13 2 13 2 9 C1.34 9 0.68 9 0 9 C0 6.03 0 3.06 0 0 Z " fill="#EEEEF0" transform="translate(26,70)"/>
<path d="M0 0 C3.3 0 6.6 0 10 0 C10 6.27 10 12.54 10 19 C13.63 19 17.26 19 21 19 C18.85792454 23.28415092 16.49353383 25.94250421 13.1875 29.3125 C12.66607422 29.87517578 12.14464844 30.43785156 11.60742188 31.01757812 C7.79581602 34.90532092 7.79581602 34.90532092 4.5703125 35.2890625 C0.56711601 33.28138037 -2.22950559 30.26614713 -5.3125 27.0625 C-5.95767578 26.41603516 -6.60285156 25.76957031 -7.26757812 25.10351562 C-12 20.28095238 -12 20.28095238 -12 18 C-8.04 18 -4.08 18 0 18 C0 12.06 0 6.12 0 0 Z " fill="#EBECEE" transform="translate(57,31)"/>
<path d="M0 0 C0 0.66 0 1.32 0 2 C-1.65 2.33 -3.3 2.66 -5 3 C-5.05027344 3.54140625 -5.10054687 4.0828125 -5.15234375 4.640625 C-6.40293908 8.12154473 -8.94016074 10.25534018 -11.5625 12.75 C-12.08263672 13.25660156 -12.60277344 13.76320313 -13.13867188 14.28515625 C-14.41910084 15.53034405 -15.70867554 16.76611502 -17 18 C-17.99 17.67 -18.98 17.34 -20 17 C-19.67 16.34 -19.34 15.68 -19 15 C-18.34 15 -17.68 15 -17 15 C-16.75121094 14.41347656 -16.50242187 13.82695312 -16.24609375 13.22265625 C-14.82588804 10.68943667 -13.28816254 9.29014647 -11.0625 7.4375 C-8.13489239 4.98167157 -8.13489239 4.98167157 -5.37109375 2.34765625 C-3.58270508 0.58983833 -2.52507716 0 0 0 Z " fill="#5D6170" transform="translate(33,18)"/>
</svg>
