<?xml version="1.0" encoding="UTF-8"?>
<svg version="1.1" xmlns="http://www.w3.org/2000/svg" width="145" height="160">
<path d="M0 0 C47.85 0 95.7 0 145 0 C145 52.8 145 105.6 145 160 C97.15 160 49.3 160 0 160 C0 107.2 0 54.4 0 0 Z " fill="#D4D8E2" transform="translate(0,0)"/>
<path d="M0 0 C14.85 -0.2784375 14.85 -0.2784375 30 -0.5625 C34.66769531 -0.68540405 34.66769531 -0.68540405 39.4296875 -0.81079102 C41.91142285 -0.83708996 44.39319716 -0.86002078 46.875 -0.87890625 C48.15117188 -0.92494995 49.42734375 -0.97099365 50.7421875 -1.01843262 C59.63386969 -1.02624757 59.63386969 -1.02624757 63.65332031 1.99319458 C69 7.8368807 69 7.8368807 69 11 C69.99 11.33 70.98 11.66 72 12 C73.82421875 13.99609375 73.82421875 13.99609375 75.6875 16.4375 C76.62142578 17.64212891 76.62142578 17.64212891 77.57421875 18.87109375 C79 21 79 21 79 23 C79.66 23 80.32 23 81 23 C82.60371399 24.04841614 82.60371399 24.04841614 84 26 C84.28039408 28.49337618 84.3794924 30.73388562 84.34057617 33.2253418 C84.34123329 34.3232756 84.34123329 34.3232756 84.34190369 35.44338989 C84.33981398 37.86227105 84.31647515 40.28045871 84.29296875 42.69921875 C84.28737342 44.37644573 84.28310303 46.05367762 84.28010559 47.73091125 C84.26865178 52.14512675 84.23918011 56.55904605 84.20599365 60.97314453 C84.17530425 65.4774983 84.16160268 69.98189994 84.14648438 74.48632812 C84.11431083 83.32434887 84.06310808 92.16214981 84 101 C83.34 101 82.68 101 82 101 C81.401875 100.175 80.80375 99.35 80.1875 98.5 C78.24635589 95.71536191 78.24635589 95.71536191 75.25 95.6875 C74.5075 95.790625 73.765 95.89375 73 96 C73 96.66 73 97.32 73 98 C71.25 99.6875 71.25 99.6875 69 101 C67 100.9375 67 100.9375 65 100 C64.0409375 98.948125 64.0409375 98.948125 63.0625 97.875 C61.14831647 95.70129975 61.14831647 95.70129975 58.4375 96.0625 C55.95121778 96.81248014 55.95121778 96.81248014 54.5 98.625 C54.005 99.07875 53.51 99.5325 53 100 C50.02927734 99.85146387 48.54267759 99.58790072 46.5 97.375 C46.005 96.92125 45.51 96.4675 45 96 C41.602552 96.26134215 38.95905318 97.35608156 36 99 C36 99.66 36 100.32 36 101 C32.68289418 100.63143269 31.30834668 100.31769052 28.9375 97.875 C27.20983376 95.76819286 27.20983376 95.76819286 25 96 C22.83116246 96.94659221 22.83116246 96.94659221 21 99.0625 C19 101 19 101 15 101 C15 100.34 15 99.68 15 99 C14.01 98.67 13.02 98.34 12 98 C12 97.34 12 96.68 12 96 C9.10197397 96.19053578 9.10197397 96.19053578 6 97 C4.31461399 98.99665314 4.31461399 98.99665314 3 101 C2.01 101 1.02 101 0 101 C0 67.67 0 34.34 0 0 Z " fill="#FEFEFE" transform="translate(33,33)"/>
<path d="M0 0 C47.85 0 95.7 0 145 0 C145 52.8 145 105.6 145 160 C97.15 160 49.3 160 0 160 C0 107.2 0 54.4 0 0 Z M9 10 C9 57.52 9 105.04 9 154 C52.56 154 96.12 154 141 154 C141.165 135.664375 141.33 117.32875 141.5 98.4375 C141.57283203 92.65404053 141.64566406 86.87058105 141.72070312 80.91186523 C141.74746323 75.71480937 141.74746323 75.71480937 141.7635498 70.51771545 C141.77581217 68.2078976 141.80390394 65.8981301 141.84460449 63.58863831 C141.90327307 60.08350089 141.91124571 56.58148343 141.90820312 53.07592773 C141.95138042 51.53982298 141.95138042 51.53982298 141.99542999 49.97268581 C141.94928863 44.5472206 141.94928863 44.5472206 139.31455898 39.97536564 C137.92234521 38.78695329 136.49084475 37.64305686 135.02423668 36.54777431 C132.2274223 34.4092707 130.51485491 31.79939498 128.54516602 28.90258789 C121.79134778 19.81882269 114.16462156 10.98843775 102.61199951 8.66815186 C87.5569891 6.52188399 72.03010135 7.74226627 56.9375 8.4375 C41.118125 8.953125 25.29875 9.46875 9 10 Z " fill="#FBFBFC" transform="translate(0,0)"/>
<path d="M0 0 C19.8 0 39.6 0 60 0 C60 3.3 60 6.6 60 10 C40.2 10 20.4 10 0 10 C0 6.7 0 3.4 0 0 Z " fill="#B9BCC4" transform="translate(45,66)"/>
<path d="M0 0 C15.84 0 31.68 0 48 0 C48 3.3 48 6.6 48 10 C32.16 10 16.32 10 0 10 C0 6.7 0 3.4 0 0 Z " fill="#21243B" transform="translate(45,87)"/>
</svg>
