<?xml version="1.0" encoding="UTF-8"?>
<svg version="1.1" xmlns="http://www.w3.org/2000/svg" width="73" height="81">
<path d="M0 0 C24.09 0 48.18 0 73 0 C73 26.73 73 53.46 73 81 C48.91 81 24.82 81 0 81 C0 54.27 0 27.54 0 0 Z " fill="#FCFCFC" transform="translate(0,0)"/>
<path d="M0 0 C0.99 0 1.98 0 3 0 C3 7.59 3 15.18 3 23 C6.34321955 21.88559348 7.06019619 21.02527657 9.25 18.375 C11.68943424 15.52297646 14.12305045 12.6784278 16.6875 9.9375 C17.49767578 9.05384766 17.49767578 9.05384766 18.32421875 8.15234375 C20 7 20 7 22.20703125 7.31640625 C22.79871094 7.54199219 23.39039063 7.76757812 24 8 C23.8125 10.3125 23.8125 10.3125 23 13 C21.34457528 14.01850221 19.67585025 15.01546777 18 16 C16.37102903 17.45030963 14.78706307 18.95262107 13.25 20.5 C12.47140625 21.2734375 11.6928125 22.046875 10.890625 22.84375 C8.80367383 24.94285879 8.80367383 24.94285879 8 28 C15.59 28 23.18 28 31 28 C31 29.32 31 30.64 31 32 C23.74 32 16.48 32 9 32 C10.25543424 35.76630271 11.88688863 36.59441394 15 39 C21.20618557 44.91065292 21.20618557 44.91065292 23 48 C22.6875 50.25 22.6875 50.25 22 52 C18.15933963 50.43528652 15.86966685 47.93965873 13 45 C12.113125 44.34 11.22625 43.68 10.3125 43 C7.77407018 40.80460123 6.96931321 39.17229779 6 36 C5.01 36 4.02 36 3 36 C3 43.92 3 51.84 3 60 C2.01 60 1.02 60 0 60 C0 52.08 0 44.16 0 36 C-4.25009701 38.55005821 -7.35331204 41.07883486 -10.75 44.5625 C-11.49056641 45.3040332 -11.49056641 45.3040332 -12.24609375 46.06054688 C-14.95935759 48.77811124 -14.95935759 48.77811124 -17 52 C-18.32 51.67 -19.64 51.34 -21 51 C-20.42235562 47.86915901 -19.59969956 46.22256994 -17.34765625 43.984375 C-16.81849609 43.45585938 -16.28933594 42.92734375 -15.74414062 42.3828125 C-15.18919922 41.84398437 -14.63425781 41.30515625 -14.0625 40.75 C-13.23588867 39.91855469 -13.23588867 39.91855469 -12.39257812 39.0703125 C-8.26712592 35 -8.26712592 35 -6 35 C-6 34.01 -6 33.02 -6 32 C-13.26 32 -20.52 32 -28 32 C-28 30.68 -28 29.36 -28 28 C-20.41 28 -12.82 28 -5 28 C-7.91987046 23.13354923 -8.57866827 22.60745205 -13 20 C-13.66666667 18.66666667 -14.33333333 17.33333333 -15 16 C-16.91224827 14.1959922 -18.92568731 12.62337515 -21 11 C-20.67 9.68 -20.34 8.36 -20 7 C-18.35 7.33 -16.7 7.66 -15 8 C-14.67 8.99 -14.34 9.98 -14 11 C-12.24118094 12.78255008 -12.24118094 12.78255008 -10.125 14.5 C-4.48224007 19.24741426 -4.48224007 19.24741426 -3 21 C-3 21.99 -3 22.98 -3 24 C-2.01 24 -1.02 24 0 24 C0 16.08 0 8.16 0 0 Z " fill="#26293F" transform="translate(36,13)"/>
<path d="M0 0 C7.92 0 15.84 0 24 0 C24 7 24 7 22.91430664 8.86450195 C22.1697522 9.54452271 22.1697522 9.54452271 21.41015625 10.23828125 C20.87326172 10.74810547 20.33636719 11.25792969 19.78320312 11.78320312 C19.21537109 12.28787109 18.64753906 12.79253906 18.0625 13.3125 C14.0351972 16.76421836 14.0351972 16.76421836 11 21 C9.68 20.67 8.36 20.34 7 20 C7.57764438 16.86915901 8.40030044 15.22256994 10.65234375 12.984375 C11.18150391 12.45585938 11.71066406 11.92734375 12.25585938 11.3828125 C12.81080078 10.84398437 13.36574219 10.30515625 13.9375 9.75 C14.48857422 9.19570313 15.03964844 8.64140625 15.60742188 8.0703125 C19.73287408 4 19.73287408 4 22 4 C22 3.01 22 2.02 22 1 C14.74 1 7.48 1 0 1 C0 0.67 0 0.34 0 0 Z " fill="#2F3247" transform="translate(8,44)"/>
<path d="M0 0 C2.5 1.8125 2.5 1.8125 5 4 C5 4.99 5 5.98 5 7 C-2.59 7 -10.18 7 -18 7 C-18 8.32 -18 9.64 -18 11 C-10.74 11 -3.48 11 4 11 C3.67 11.99 3.34 12.98 3 14 C3 13.34 3 12.68 3 12 C-4.26 12 -11.52 12 -19 12 C-19 9.69 -19 7.38 -19 5 C-12.07 5 -5.14 5 2 5 C1.34 3.35 0.68 1.7 0 0 Z " fill="#B7B8BF" transform="translate(26,34)"/>
<path d="M0 0 C1.98 0 3.96 0 6 0 C6 7.26 6 14.52 6 22 C6.66 22.33 7.32 22.66 8 23 C6.68 23.33 5.36 23.66 4 24 C4 16.41 4 8.82 4 1 C3.01 1 2.02 1 1 1 C1 8.92 1 16.84 1 25 C0.01 25 -0.98 25 -2 25 C-2 24.34 -2 23.68 -2 23 C-1.34 23 -0.68 23 0 23 C0 15.41 0 7.82 0 0 Z " fill="#A1A2AC" transform="translate(35,12)"/>
<path d="M0 0 C0.556875 0.268125 1.11375 0.53625 1.6875 0.8125 C1.5 3.125 1.5 3.125 0.6875 5.8125 C-1.625 7.4375 -1.625 7.4375 -4.3125 8.8125 C-5.65881825 9.79494845 -6.99691297 10.78926564 -8.3125 11.8125 C-8.3125 11.1525 -8.3125 10.4925 -8.3125 9.8125 C-9.9625 10.4725 -11.6125 11.1325 -13.3125 11.8125 C-3.18946908 -0.2586056 -3.18946908 -0.2586056 0 0 Z " fill="#2D3146" transform="translate(58.3125,20.1875)"/>
<path d="M0 0 C0 7.92 0 15.84 0 24 C-0.66 24 -1.32 24 -2 24 C-2.33 17.07 -2.66 10.14 -3 3 C-3.99 3 -4.98 3 -6 3 C-3.375 0 -3.375 0 0 0 Z " fill="#A2A3AD" transform="translate(36,49)"/>
<path d="M0 0 C0.99 0 1.98 0 3 0 C3.33 0.99 3.66 1.98 4 3 C3.67 3.33 3.34 3.66 3 4 C2.84344973 5.48638992 2.74933057 6.97949127 2.68359375 8.47265625 C2.64169922 9.37177734 2.59980469 10.27089844 2.55664062 11.19726562 C2.51732422 12.14279297 2.47800781 13.08832031 2.4375 14.0625 C2.39431641 15.01189453 2.35113281 15.96128906 2.30664062 16.93945312 C2.20020724 19.29281353 2.09818992 21.64628354 2 24 C1.34 24 0.68 24 0 24 C0 16.08 0 8.16 0 0 Z " fill="#B5B7BE" transform="translate(39,49)"/>
<path d="M0 0 C0 0.99 0 1.98 0 3 C6.6 3.33 13.2 3.66 20 4 C20 4.66 20 5.32 20 6 C12.41 6 4.82 6 -3 6 C-2 2 -2 2 0 0 Z " fill="#B5B7BF" transform="translate(47,35)"/>
<path d="M0 0 C7.92 0 15.84 0 24 0 C24 2.31 24 4.62 24 7 C23.01 7.66 22.02 8.32 21 9 C21 8.34 21 7.68 21 7 C19.35 7.66 17.7 8.32 16 9 C17.28062485 7.2925002 18.61767557 5.62626404 20 4 C20.66 4 21.32 4 22 4 C22 3.01 22 2.02 22 1 C14.74 1 7.48 1 0 1 C0 0.67 0 0.34 0 0 Z " fill="#56586A" transform="translate(8,44)"/>
<path d="M0 0 C1.32 0.33 2.64 0.66 4 1 C3.67 2.65 3.34 4.3 3 6 C2.01 6 1.02 6 0 6 C0 5.34 0 4.68 0 4 C-1.65 4.66 -3.3 5.32 -5 6 C-3.35 4.02 -1.7 2.04 0 0 Z " fill="#5B5E6F" transform="translate(56,20)"/>
<path d="M0 0 C-0.34879632 3.25543229 -1.02133261 4.01873107 -3.5625 6.25 C-4.366875 6.8275 -5.17125 7.405 -6 8 C-5.6875 5.125 -5.6875 5.125 -5 2 C-2 0 -2 0 0 0 Z " fill="#151830" transform="translate(50,30)"/>
</svg>
