<?xml version="1.0" encoding="UTF-8"?>
<svg version="1.1" xmlns="http://www.w3.org/2000/svg" width="81" height="60">
<path d="M0 0 C26.73 0 53.46 0 81 0 C81 19.8 81 39.6 81 60 C54.27 60 27.54 60 0 60 C0 40.2 0 20.4 0 0 Z " fill="#E11839" transform="translate(0,0)"/>
<path d="M0 0 C26.73 0 53.46 0 81 0 C81 19.8 81 39.6 81 60 C54.27 60 27.54 60 0 60 C0 40.2 0 20.4 0 0 Z M18 7 C17.01 8.485 17.01 8.485 16 10 C14.8553125 10.61875 14.8553125 10.61875 13.6875 11.25 C9.55819302 13.93885105 6.63639709 17.5809005 5.37109375 22.390625 C4.35770989 29.51631359 4.58641207 36.21178394 7 43 C7.66 43 8.32 43 9 43 C9 43.66 9 44.32 9 45 C14.69992991 51.17492407 18.29227094 53.75549892 26.71362305 54.19287109 C30.5447426 54.28230528 34.37671858 54.32196296 38.20874023 54.35009766 C39.85243942 54.36661074 41.49606817 54.39383949 43.1394043 54.43212891 C56.90949916 54.95601355 56.90949916 54.95601355 69 49 C69.33 48.01 69.66 47.02 70 46 C70.639375 45.4225 71.27875 44.845 71.9375 44.25 C76.46120758 39.31504628 76.37575306 33.04703697 76.26171875 26.65234375 C75.88867173 22.8717628 74.77822746 20.35127483 73 17 C72.73703125 16.34257812 72.4740625 15.68515625 72.203125 15.0078125 C70.60758462 12.34512499 68.79985068 11.35629364 66.125 9.8125 C65.26132813 9.30332031 64.39765625 8.79414063 63.5078125 8.26953125 C58.68051167 5.82580419 54.17889198 5.85291833 48.83984375 5.8671875 C48.05356094 5.86623077 47.26727814 5.86527405 46.45716858 5.86428833 C44.79883748 5.8636092 43.14050369 5.86544487 41.48217773 5.86962891 C38.94313603 5.8749881 36.40427064 5.86967124 33.86523438 5.86328125 C32.25260378 5.86394194 30.63997329 5.86522291 29.02734375 5.8671875 C28.26791977 5.86516327 27.50849579 5.86313904 26.72605896 5.86105347 C23.55063863 5.87519888 21.03499543 5.98833486 18 7 Z " fill="#FEF8F9" transform="translate(0,0)"/>
<path d="M0 0 C2.9719385 1.12451727 5.33440687 2.22293791 8 4 C8.99 4.33 9.98 4.66 11 5 C11.928125 4.01 11.928125 4.01 12.875 3 C15 1 15 1 17 1 C17 6.61 17 12.22 17 18 C11.39 18 5.78 18 0 18 C1.67572851 14.64854297 2.54448147 13.45551853 5 11 C5.33 10.01 5.66 9.02 6 8 C5.01 7.67 4.02 7.34 3 7 C1.60287726 5.04402816 0.26220093 3.04563599 -1 1 C-0.67 0.67 -0.34 0.34 0 0 Z " fill="#FADDE2" transform="translate(33,22)"/>
<path d="M0 0 C4.41878758 1.67197368 7.72607883 3.57017783 11 7 C8.03 6.505 8.03 6.505 5 6 C4.67 6.66 4.34 7.32 4 8 C2.35 5.69 0.7 3.38 -1 1 C-0.67 0.67 -0.34 0.34 0 0 Z " fill="#F5B4BF" transform="translate(33,22)"/>
<path d="M0 0 C0.33 0.66 0.66 1.32 1 2 C-0.24196122 3.15454162 -1.49392845 4.29832562 -2.75 5.4375 C-3.79414063 6.39462891 -3.79414063 6.39462891 -4.859375 7.37109375 C-6.98792725 8.99081325 -8.39023405 9.58267256 -11 10 C-8.60677759 4.76482597 -4.83901623 2.70111357 0 0 Z " fill="#E63E59" transform="translate(19,8)"/>
<path d="M0 0 C2.97 0.495 2.97 0.495 6 1 C6 1.66 6 2.32 6 3 C5.01 3 4.02 3 3 3 C2.34 4.32 1.68 5.64 1 7 C0.34 6.67 -0.32 6.34 -1 6 C-0.835 5.38125 -0.67 4.7625 -0.5 4.125 C0.07634644 2.03936614 0.07634644 2.03936614 0 0 Z " fill="#FADAE0" transform="translate(38,28)"/>
</svg>
