<?xml version="1.0" encoding="UTF-8"?>
<svg version="1.1" xmlns="http://www.w3.org/2000/svg" width="73" height="85">
<path d="M0 0 C24.09 0 48.18 0 73 0 C73 28.05 73 56.1 73 85 C48.91 85 24.82 85 0 85 C0 56.95 0 28.9 0 0 Z " fill="#FBFBFB" transform="translate(0,0)"/>
<path d="M0 0 C0.99 0.33 1.98 0.66 3 1 C3 1.66 3 2.32 3 3 C3.99 3.33 4.98 3.66 6 4 C5.67 6.97 5.34 9.94 5 13 C4.34 13 3.68 13 3 13 C2.67 13.99 2.34 14.98 2 16 C1.34 16 0.68 16 0 16 C0 18.97 0 21.94 0 25 C2.97 25.99 5.94 26.98 9 28 C9 27.34 9 26.68 9 26 C11.59803039 23.24771155 14.38963904 21.07281632 18.24609375 20.8984375 C20.4375 21.1875 20.4375 21.1875 24 22 C24.495 23.98 24.495 23.98 25 26 C25.66 26 26.32 26 27 26 C27.41879914 30.27175119 27.41600723 32.37598915 25 36 C21.79985509 38.13342994 21.277372 38.25246655 17.6875 37.8125 C16.470625 37.544375 15.25375 37.27625 14 37 C14 36.34 14 35.68 14 35 C10.73602552 33.1169378 7.75561867 32.32657554 4 32 C3.34 32.66 2.68 33.32 2 34 C1.01 34 0.02 34 -1 34 C-1 35.98 -1 37.96 -1 40 C-0.34 40 0.32 40 1 40 C3.94387198 43.10886776 5.87586815 46.3886281 6.20703125 50.6875 C6.00815188 53.2691794 5.80574361 55.53698827 5 58 C1.85388747 60.09740836 1.08811922 60.25328219 -2.5 60.1875 C-3.2734375 60.18105469 -4.046875 60.17460938 -4.84375 60.16796875 C-7 60 -7 60 -10 59 C-12.52003857 55.55152617 -12.15901 52.13426005 -12 48 C-11.34 48 -10.68 48 -10 48 C-9.9175 47.4225 -9.835 46.845 -9.75 46.25 C-9 44 -9 44 -6.875 42.0625 C-6.25625 41.381875 -5.6375 40.70125 -5 40 C-5.16150205 36.60845705 -5.58296757 35.41703243 -8 33 C-11.933036 32.65799687 -14.67372395 32.82071569 -18 35 C-18.65742188 35.78503906 -18.65742188 35.78503906 -19.328125 36.5859375 C-21 38 -21 38 -23.19140625 38.14453125 C-23.97386719 38.03496094 -24.75632812 37.92539062 -25.5625 37.8125 C-26.34753906 37.71582031 -27.13257813 37.61914062 -27.94140625 37.51953125 C-30 37 -30 37 -32 35 C-32.265625 32.9765625 -32.265625 32.9765625 -32.25 30.625 C-32.25515625 29.85414062 -32.2603125 29.08328125 -32.265625 28.2890625 C-31.97234684 25.7616948 -31.34522026 24.15045773 -30 22 C-27.47946405 20.73973202 -26.1457902 21.08125555 -23.375 21.4375 C-22.55773438 21.53933594 -21.74046875 21.64117187 -20.8984375 21.74609375 C-20.27195312 21.82988281 -19.64546875 21.91367187 -19 22 C-18.34 23.65 -17.68 25.3 -17 27 C-12.9899066 27.17864631 -12.9899066 27.17864631 -9 27 C-8.34 26.34 -7.68 25.68 -7 25 C-6.01 25 -5.02 25 -4 25 C-4 22.69 -4 20.38 -4 18 C-4.99 17.67 -5.98 17.34 -7 17 C-9.96742121 14.11736226 -10.9372103 12.59650212 -11.375 8.4375 C-11.03733366 5.34222519 -10.7512377 3.52956557 -9 1 C-6.01002175 -0.49498913 -3.29957225 -0.11577446 0 0 Z " fill="#14172F" transform="translate(41,16)"/>
<path d="M0 0 C0.556875 0.226875 1.11375 0.45375 1.6875 0.6875 C1.6875 1.3475 1.6875 2.0075 1.6875 2.6875 C2.326875 2.81125 2.96625 2.935 3.625 3.0625 C4.305625 3.26875 4.98625 3.475 5.6875 3.6875 C7.09207737 6.49665474 6.93645157 8.57560534 6.6875 11.6875 C5.75 14 5.75 14 3.6875 15.6875 C-0.5580869 16.69948347 -4.14817807 17.07560731 -8.3125 15.6875 C-10.08814811 12.13620378 -9.76844986 8.17969953 -8.625 4.4375 C-6.35161173 1.40631564 -3.86784374 -0.52268159 0 0 Z " fill="#0E122A" transform="translate(40.3125,58.3125)"/>
<path d="M0 0 C1.98 0.66 3.96 1.32 6 2 C6 3.65 6 5.3 6 7 C6.66 7 7.32 7 8 7 C8.66 8.65 9.32 10.3 10 12 C9.34 12 8.68 12 8 12 C7.67 11.34 7.34 10.68 7 10 C6.13375 10.2165625 6.13375 10.2165625 5.25 10.4375 C3.16666667 10.95833333 1.08333333 11.47916667 -1 12 C-1.8723412 14.99480917 -2.10829766 17.63575911 -2.0625 20.75 C-2.05347656 21.54921875 -2.04445313 22.3484375 -2.03515625 23.171875 C-2.02355469 23.77515625 -2.01195312 24.3784375 -2 25 C5.22032206 25.2993987 5.22032206 25.2993987 12 23 C11 26 11 26 9 27 C7.52331663 27.0952699 6.04224543 27.12985959 4.5625 27.125 C3.38880859 27.12886719 3.38880859 27.12886719 2.19140625 27.1328125 C0 27 0 27 -3 26 C-5.52003857 22.55152617 -5.15901 19.13426005 -5 15 C-4.34 15 -3.68 15 -3 15 C-2.9175 14.4225 -2.835 13.845 -2.75 13.25 C-2 11 -2 11 0.125 9.0625 C0.74375 8.381875 1.3625 7.70125 2 7 C1.80398092 4.25573284 1.22394754 2.44789508 0 0 Z " fill="#717381" transform="translate(34,49)"/>
<path d="M0 0 C2.5625 0.3125 2.5625 0.3125 4.4375 1.5625 C5.5625 3.3125 5.5625 3.3125 5.4375 5.3125 C4.42965201 7.61615256 3.62596514 8.86043194 1.5625 10.3125 C-0.95558551 10.15511966 -2.21340488 9.47477577 -4.25 8 C-5.4375 6.3125 -5.4375 6.3125 -5.25 4.25 C-4.04101638 1.36703907 -3.13082717 0.4013881 0 0 Z " fill="#11152D" transform="translate(38.4375,40.6875)"/>
<path d="M0 0 C0.66 0.33 1.32 0.66 2 1 C1.34 1.66 0.68 2.32 0 3 C-0.16687448 5.58354218 -0.16687448 5.58354218 0 8 C-2.97 8 -5.94 8 -9 8 C-8.67 7.34 -8.34 6.68 -8 6 C-7.34 6 -6.68 6 -6 6 C-6 5.01 -6 4.02 -6 3 C-5.195625 2.690625 -4.39125 2.38125 -3.5625 2.0625 C-1.10919595 1.23664655 -1.10919595 1.23664655 0 0 Z " fill="#818390" transform="translate(34,41)"/>
<path d="M0 0 C0.99 0 1.98 0 3 0 C3 1.98 3 3.96 3 6 C2.01 6 1.02 6 0 6 C0 4.02 0 2.04 0 0 Z " fill="#616473" transform="translate(37,35)"/>
<path d="M0 0 C1.98 0.66 3.96 1.32 6 2 C6 3.32 6 4.64 6 6 C5.01 6 4.02 6 3 6 C2.01 4.02 1.02 2.04 0 0 Z " fill="#737684" transform="translate(34,49)"/>
<path d="M0 0 C1.65 0.33 3.3 0.66 5 1 C3.75453595 4.73639216 2.36595047 5.18756513 -1 7 C-0.67 4.69 -0.34 2.38 0 0 Z " fill="#878995" transform="translate(43,43)"/>
</svg>
