<?xml version="1.0" encoding="UTF-8"?>
<svg version="1.1" xmlns="http://www.w3.org/2000/svg" width="169" height="163">
<path d="M0 0 C55.77 0 111.54 0 169 0 C169 53.79 169 107.58 169 163 C113.23 163 57.46 163 0 163 C0 109.21 0 55.42 0 0 Z " fill="#D4D8E3" transform="translate(0,0)"/>
<path d="M0 0 C55.77 0 111.54 0 169 0 C169 53.79 169 107.58 169 163 C113.23 163 57.46 163 0 163 C0 109.21 0 55.42 0 0 Z M72 15 C72 15.66 72 16.32 72 17 C70.2675 17.1546875 70.2675 17.1546875 68.5 17.3125 C63.98828481 17.86035113 60.19394251 19.2774879 56 21 C56 21.66 56 22.32 56 23 C54.9790625 23.4021875 54.9790625 23.4021875 53.9375 23.8125 C52.968125 24.204375 51.99875 24.59625 51 25 C49.2675 25.6496875 49.2675 25.6496875 47.5 26.3125 C43.72741833 28.13142331 41.76479777 29.88074097 39 33 C38.49339844 33.56203125 37.98679687 34.1240625 37.46484375 34.703125 C32.20873221 40.15949201 32.20873221 40.15949201 30 47 C29.07380859 47.37511719 29.07380859 47.37511719 28.12890625 47.7578125 C23.63416711 50.38043093 22.52414388 56.23043459 21.1171875 60.98046875 C17.51953345 74.75983307 16.26614145 89.09783483 20 103 C20.19464844 103.78375 20.38929687 104.5675 20.58984375 105.375 C22.55206307 112.62011748 25.73606119 119.2608642 29 126 C29.66 126 30.32 126 31 126 C31.3403125 127.3303125 31.3403125 127.3303125 31.6875 128.6875 C33.19726449 132.49785801 34.98208453 134.26950506 38 137 C39.0828125 138.1446875 39.0828125 138.1446875 40.1875 139.3125 C41.83122273 141.22713951 41.83122273 141.22713951 44 141 C44 141.66 44 142.32 44 143 C62.17434721 156.47459785 82.53279522 160.15875933 104.67578125 157.5703125 C115.06130445 155.29364841 125.84810417 149.79324652 134 143 C134 142.34 134 141.68 134 141 C135.051875 140.690625 135.051875 140.690625 136.125 140.375 C142.02836782 137.55165018 145.50331131 132.99205286 148 127 C148.69971973 125.01132287 149.37664397 123.01391949 150 121 C150.66 121 151.32 121 152 121 C152.33 119.02 152.66 117.04 153 115 C153.99 115 154.98 115 156 115 C161.52034768 96.6628451 161.45790102 80.70971443 158 62 C157.34 62 156.68 62 156 62 C155.87044922 61.05640625 155.87044922 61.05640625 155.73828125 60.09375 C154.68535893 53.67961773 152.71529493 49.28167363 149 44 C148.67 43.34 148.34 42.68 148 42 C147.34 42 146.68 42 146 42 C145.505 40.515 145.505 40.515 145 39 C143.50404669 37.47967951 143.50404669 37.47967951 141.6875 36.0625 C139.70257239 34.43044841 137.88523191 32.87758071 136.125 31 C131.0388081 26.21299586 123.14302674 20 116 20 C116 19.34 116 18.68 116 18 C100.87093193 14.59063255 87.50229809 12.99970347 72 15 Z " fill="#FCFCFD" transform="translate(0,0)"/>
<path d="M0 0 C23.43 0 46.86 0 71 0 C71 1.65 71 3.3 71 5 C70.34 5 69.68 5 69 5 C69.020625 6.0725 69.04125 7.145 69.0625 8.25 C69.0142016 11.14790424 68.86844115 13.28612141 68 16 C67.34 16 66.68 16 66 16 C65.9071875 17.051875 65.9071875 17.051875 65.8125 18.125 C64.36286398 23.25448129 61.11051927 26.54063953 56.625 29.1875 C53.17077752 30.99721221 49.61088483 32.52889877 46 34 C45.21238281 34.35320312 44.42476562 34.70640625 43.61328125 35.0703125 C35.88340639 37.82025303 25.08103946 36.37983729 17.71484375 32.9296875 C17.14894531 32.62289062 16.58304688 32.31609375 16 32 C16 31.34 16 30.68 16 30 C15.2575 29.773125 14.515 29.54625 13.75 29.3125 C10.4574253 27.7410439 9.02502891 26.00004284 7 23 C7 22.34 7 21.68 7 21 C6.34 21 5.68 21 5 21 C0.36356553 13.37231748 0.76926024 10.00038314 0 0 Z " fill="#AAADB8" transform="translate(54,85)"/>
<path d="M0 0 C3.96 0 7.92 0 12 0 C12.03867187 1.48113281 12.03867187 1.48113281 12.078125 2.9921875 C12.13484375 4.27351563 12.1915625 5.55484375 12.25 6.875 C12.29640625 8.15117188 12.3428125 9.42734375 12.390625 10.7421875 C12.69226563 12.35480469 12.69226563 12.35480469 13 14 C14.92571106 15.3384358 14.92571106 15.3384358 17 16 C17.75 18.625 17.75 18.625 18 21 C18.66 21 19.32 21 20 21 C21.1484375 22.4609375 21.1484375 22.4609375 22.375 24.375 C24.28453904 27.17981254 25.67572 28.89190667 29 30 C29 30.66 29 31.32 29 32 C29.75925781 32.13277344 30.51851562 32.26554687 31.30078125 32.40234375 C32.29464844 32.57894531 33.28851563 32.75554687 34.3125 32.9375 C35.29863281 33.11152344 36.28476563 33.28554687 37.30078125 33.46484375 C40 34 40 34 43 35 C50.92617825 35.80448731 56.88702871 34.43125728 64 31 C65.093125 30.525625 66.18625 30.05125 67.3125 29.5625 C72.61353222 26.48050453 77.05002532 21.84992404 79 16 C79.99 16 80.98 16 82 16 C82.144375 14.865625 82.28875 13.73125 82.4375 12.5625 C83 9 83 9 84 8 C84.36760731 5.67182036 84.70241581 3.3381615 85 1 C88.63 1 92.26 1 96 1 C96.30552873 9.70756888 94.24110231 16.4446588 90 24 C89.59007812 24.73476562 89.18015625 25.46953125 88.7578125 26.2265625 C83.42241863 34.99831174 75.44364744 41.11364807 66 45 C65.36191406 45.29777344 64.72382812 45.59554687 64.06640625 45.90234375 C53.62322642 50.18621903 40.86376032 48.87544188 30.3828125 45.4375 C16.08772101 39.36291147 8.32656895 29.65844888 1.9375 15.8125 C-0.19498184 10.32793199 -0.42941701 5.84007132 0 0 Z " fill="#FAFAFB" transform="translate(41,85)"/>
<path d="M0 0 C6.40299258 -0.34677716 11.31314576 1.79006143 16.33203125 5.578125 C19.20215318 8.44824693 19.77726159 9.24819254 19.95703125 13.203125 C20.01761719 13.88632812 20.07820313 14.56953125 20.140625 15.2734375 C20.52044771 22.06420715 18.72111074 25.90749176 14.33203125 31.140625 C12.95703125 32.203125 12.95703125 32.203125 10.95703125 32.203125 C10.95703125 32.863125 10.95703125 33.523125 10.95703125 34.203125 C5.6699046 35.96550055 0.15540384 35.58361256 -5.29296875 34.640625 C-9.10387076 32.64856259 -11.75637662 29.84383375 -14.04296875 26.203125 C-14.04296875 25.213125 -14.04296875 24.223125 -14.04296875 23.203125 C-14.70296875 23.203125 -15.36296875 23.203125 -16.04296875 23.203125 C-16.73017587 15.68202481 -16.60677283 10.05531668 -11.87890625 3.91796875 C-8.27238208 0.54932171 -4.70106629 0.46741003 0 0 Z " fill="#FDFDFE" transform="translate(87.04296875,37.796875)"/>
<path d="M0 0 C15.51 0 31.02 0 47 0 C46 10 46 10 45 13 C44.34 13 43.68 13 43 13 C42.67 13.99 42.34 14.98 42 16 C41.01 16.33 40.02 16.66 39 17 C38.566875 17.45375 38.13375 17.9075 37.6875 18.375 C33.43434277 22.47063289 28.87382397 23.43109819 23.125 23.4375 C15.76143336 23.27438302 11.32581202 21.69660434 5.6875 17.125 C1.11364456 11.36533019 0.85512056 7.69608506 0 0 Z " fill="#0D1129" transform="translate(66,86)"/>
<path d="M0 0 C-1 1 -1 1 -3.5625 1.0625 C-4.7690625 1.0315625 -4.7690625 1.0315625 -6 1 C-6 1.66 -6 2.32 -6 3 C-11.94 3 -17.88 3 -24 3 C-24 2.34 -24 1.68 -24 1 C-24.99 0.67 -25.98 0.34 -27 0 C-26.071875 0.165 -25.14375 0.33 -24.1875 0.5 C-16.57557265 1.56970059 -6.33246679 -2.34535807 0 0 Z " fill="#D6D8DD" transform="translate(104,119)"/>
<path d="M0 0 C3.96 0 7.92 0 12 0 C12 0.33 12 0.66 12 1 C8.37 1 4.74 1 1 1 C1.0928125 2.485 1.0928125 2.485 1.1875 4 C1.21491645 8.46888211 -0.2791773 11.91304608 -2 16 C-3.1700097 12.08263419 -2.69584017 9.02040985 -2 5 C-1.34 5 -0.68 5 0 5 C0 3.35 0 1.7 0 0 Z " fill="#DDDFE4" transform="translate(125,85)"/>
<path d="M0 0 C0.66 0.33 1.32 0.66 2 1 C1.0479279 2.00596297 0.08812654 3.00461563 -0.875 4 C-1.40867187 4.556875 -1.94234375 5.11375 -2.4921875 5.6875 C-4 7 -4 7 -6 7 C-3 1 -3 1 0 0 Z " fill="#F1F2F6" transform="translate(80,39)"/>
</svg>
